/* XPM */
static char *b57331d796ea40fcd667383e1a41f22f9852UQ1a9Yd1RcpD[] = {
/* columns rows colors chars-per-pixel */
"64 64 192 2 ",
"   c #010100",
".  c #0B0201",
"X  c #070B09",
"o  c #0C0C0B",
"O  c #0F0805",
"+  c #130402",
"@  c #1D0000",
"#  c #160A06",
"$  c #130D0D",
"%  c #1A0D0A",
"&  c #190B07",
"*  c #0B100D",
"=  c #12100F",
"-  c #1C130F",
";  c #120F11",
":  c #0E1513",
">  c #131314",
",  c #1B1414",
"<  c #161619",
"1  c #181718",
"2  c #1B1B1B",
"3  c #181A17",
"4  c #230100",
"5  c #2A0000",
"6  c #230C07",
"7  c #340800",
"8  c #3F0E00",
"9  c #23110B",
"0  c #34140B",
"q  c #3C160B",
"w  c #3E1A0E",
"e  c #2F1A15",
"r  c #241C1C",
"t  c #261812",
"y  c #391B11",
"u  c #2A231B",
"i  c #3D241B",
"p  c #1D1C20",
"a  c #232323",
"s  c #262827",
"d  c #272628",
"f  c #2C2B2A",
"g  c #2B2624",
"h  c #312D2C",
"j  c #382C27",
"k  c #34312B",
"l  c #353433",
"z  c #3C3937",
"x  c #4D1400",
"c  c #461403",
"v  c #501D04",
"b  c #611C01",
"n  c #4C2516",
"m  c #432419",
"M  c #4A2619",
"N  c #4D2B1D",
"B  c #512817",
"V  c #532C1C",
"C  c #502719",
"Z  c #57301F",
"A  c #6D2304",
"S  c #7A2700",
"D  c #4D2E21",
"F  c #422B28",
"G  c #542F21",
"H  c #552D2F",
"J  c #543225",
"K  c #54362A",
"L  c #5A3729",
"P  c #5B392C",
"I  c #59382A",
"U  c #473635",
"Y  c #493734",
"T  c #413C3A",
"R  c #4E3D39",
"E  c #493A37",
"W  c #5B363A",
"Q  c #523D3A",
"!  c #5B3D3C",
"~  c #593A35",
"^  c #603C2E",
"/  c #603B3C",
"(  c #4A433E",
")  c #56433C",
"_  c #5B423D",
"`  c #63453D",
"'  c #65453B",
"]  c #623F44",
"[  c #474847",
"{  c #5B4443",
"}  c #5C4845",
"|  c #5A4A48",
" . c #535353",
".. c #644543",
"X. c #644944",
"o. c #6A4A43",
"O. c #644549",
"+. c #644D4B",
"@. c #6A4D4A",
"#. c #684249",
"$. c #6D504C",
"%. c #625148",
"&. c #705147",
"*. c #72514C",
"=. c #6F6D6E",
"-. c #756D6E",
";. c #776D71",
":. c #757273",
">. c #797577",
",. c #7A7779",
"<. c #7D7A7B",
"1. c #7B7977",
"2. c #A61B00",
"3. c #802600",
"4. c #8B2C00",
"5. c #882A01",
"6. c #8A3100",
"7. c #983400",
"8. c #A43C02",
"9. c #A73401",
"0. c #B53B01",
"q. c #CE1700",
"w. c #994004",
"e. c #A54E0B",
"r. c #B64902",
"t. c #BA5709",
"y. c #A75D12",
"u. c #A95F12",
"i. c #A55510",
"p. c #AC6213",
"a. c #B46112",
"s. c #834028",
"d. c #8C4636",
"f. c #C85601",
"g. c #D35401",
"h. c #DB5701",
"j. c #FE4C00",
"k. c #E35401",
"l. c #E25A01",
"z. c #DC6301",
"x. c #DF6C02",
"c. c #E56000",
"v. c #EF6201",
"b. c #F46500",
"n. c #FE6700",
"m. c #FF6902",
"M. c #FE7400",
"N. c #FE7B00",
"B. c #C55435",
"V. c #827D7E",
"C. c #FE8400",
"Z. c #FE8C00",
"A. c #FE9400",
"S. c #FF9B00",
"D. c #FFA300",
"F. c #FFAB00",
"G. c #FFB200",
"H. c #84807F",
"J. c #898887",
"K. c #838383",
"L. c #97908D",
"P. c #A9A9A8",
"I. c #D9DADD",
"U. c #D5D7DA",
"Y. c #DCDEE1",
"T. c #DFE3E4",
"R. c #E2E4E6",
"E. c #E8E8E5",
"W. c #E6E7E9",
"Q. c #E8E7E8",
"!. c #E6E9EA",
"~. c #EBECEC",
"^. c #F0EEED",
"/. c #F1F2EE",
"(. c #EEEFF1",
"). c #ECEDF0",
"_. c #EFF1F4",
"`. c #F1F1F2",
"'. c #F2F3F5",
"]. c #F3F4F6",
"[. c #F5F6F6",
"{. c #F4F4F4",
"}. c #FAFAF6",
"|. c #F6F6F8",
" X c #F9F7F8",
".X c #F7F8F8",
"XX c #F9FAF9",
"oX c #FEFEFE",
"OX c white",
"+X c #FFFFFE",
"@X c #FDFFFE",
"#X c #FFFFFF",
/* pixels */
"+X+X+X+X+X+X+X+X+X+X+X+X+X+X+X+X+X+X+X+X+X+X+X+X+X+X+X+X+X+X+X+X+X+X+X+X+X+X+X+X+X+X+X+X+X+X+X+X+X+X+X+X+X+X+X+X+X+X+X+X+X+X+X+X",
"+X+X+X+X+X+X+X+X+X+X+X+X+X+X+X+X+X+X+X+X+X+X+X+X+X+X+X+X+X+X+X+X+X+X+X+X+X+X+X+X+X+X+X+X+X+X+X+X+X+X+X+X+X+X+X+X+X+X+X+X+X+X+X+X",
"+X+X+X+X+X+X+X+X+X+X+X+X+X+X+X+X+X+X+X+X+X+X+X+X+X+X+X+X+X+X+X+X+X+X+X+X+X+X+X+X+X+X+X+X+X+X+X+X+X+X+X+X+X+X+X+X+X+X+X+X+X+X+X+X",
"+X+X+X+X+X+X+X+X+X+X+X+X+X+X+X+X+X+X+X+X+X+X+X+X+X+X+X+X+X+X+X+X+X+X+X+X+X+X+X+X+X+X+X+X+X+X+X+X+X+X+X+X+X+X+X+X+X+X+X+X+X+X+X+X",
"+X+X+X+X+X+X+X+X+X+X+X+X+X+X+X+X+X+X+X+X+X+X+X+X+X+X+X+X+X+X+X+X+X+X+X+X+X+X+X+X+X+X+X+X+X+X+X+X+X+X+X+X+X+X+X+X+X+X+X+X+X+X+X+X",
"+X+X+X+X+X+X+X+X+X+X+X+X+X+X+X+X+X+X+X+X+X+X+X+X+X+X+X+X+X+X+X+X+X+X+X+X+X+X+X+X+X+X+X+X+X+X+X+X+X+X+X+X+X+X+X+X+X+X+X+X+X+X+X+X",
"+X+X+X+X+X+X+X+X+X+X+X+X+X+X+X+X+X+X+X+X+X+X+X+X+X+X+X+X+X+X+X+X+X+X+X+X+X+X+X+X+X+X+X+X+X+X+X+X+X+X+X+X+X+X+X+X+X+X+X+X+X+X+X+X",
"+X+X+X+X+X+X+X+X+X+X+X+X+X+X+X+X+X+X+X+X+X+X+X+X+X+X+X+X+X+X+X+X+X+X+X+X+X+X+X+X+X+X+X+X+X+X+X+X+X+X+X+X+X+X+X+X+X+X+X+X+X+X+X+X",
"+X+X+X+X+X+X+X+X+X+X+X+X+X+X+X+X+X+X+X+X+X+X+X+X+X+X+X+X+X+X+X+X+X+X+X+X+X+X+X+X+X+X+X+X+X+X+X+X+X+X+X+X+X+X+X+X+X+X+X+X+X+X+X+X",
"+X+X+X+X+X+X+X+X+X+X+X+X+X+X+X+X+X+X+X+X+X+X+X+X+X+X+X+X+X+X+X+X+X+X+X+X+X+X+X+X+X+X+X+X+X+X+X+X+X+X+X+X+X+X+X+X+X+X+X+X+X+X+X+X",
"+X+X+X+X+X+X+X+X+X+X+X+X+X+X+X+X+X+X+X+X+X+X+X+X+X+X+X+X+X+X+X+X+X+X+X+X+X+X+X+X+X+X+X+X+X+X+X+X+X+X+X+X+X+X+X+X+X+X+X+X+X+X+X+X",
"+X+X+X+X+X+X+X+X+X+X+X+X+X+X+X+X+X+X+X+XXX`.'.(.`.[.|.|.XX+X@X}.}. X'.(.`.'.`.(.`.`.[.XX+X+X+X+X+X+X+X+X+X+X+X+X+X+X+X+X+X+X+X+X",
"+X+X+X+X+X+X+X+X+X+X+X+X+X+X+X+X+X+X+X`.[ 2 a 2 2 d f g k d.B.s.j h a a a a a a a s d z ~.+X+X+X+X+X+X+X+X+X+X+X+X+X+X+X+X+X+X+X",
"+X+X+X+X+X+X+X+X+X+X+X+X+X+X+X+X+X+X+X`.>               5 q.j.2.                        R.+X+X+X+X+X+X+X+X+X+X+X+X+X+X+X+X+X+X+X",
"+X+X+X+X+X+X+X+X+X+X+X+X+X+X+X+X+X+X+X.Xa               5.m.N.k.4                     1 ).+X+X+X+X+X+X+X+X+X+X+X+X+X+X+X+X+X+X+X",
"+X+X+X+X+X+X+X+X+X+X+X+X+X+X+X+X+X+X+X[.2             . 0.M.N.M.4.                    1 (.+X+X+X+X+X+X+X+X+X+X+X+X+X+X+X+X+X+X+X",
"+X+X+X+X+X+X+X+X+X+X+X+X+X+X+X+X+X+X+XXXa             7 l.C.C.C.M.8.                  2 (.+X+X+X+X+X+X+X+X+X+X+X+X+X+X+X+X+X+X+X",
"+X+X+X+X+X+X+X+X+X+X+X+X+X+X+X+X+X+X+XXXa             4.N.Z.Z.Z.C.N.3.                2 _.+X+X+X+X+X+X+X+X+X+X+X+X+X+X+X+X+X+X+X",
"+X+X+X+X+X+X+X+X+X+X+X+X+X+X+X+X+X+X+X[.2           b b.C.A.A.A.A.Z.M.6.              2 '.+X+X+X+X+X+X+X+X+X+X+X+X+X+X+X+X+X+X+X",
"+X+X+X+X+X+X+X+X+X+X+X+X+X+X+X+X+X+X+X[.1         b b.C.A.S.A.A.A.Z.N.N.5.            p ].+X+X+X+X+X+X+X+X+X+X+X+X+X+X+X+X+X+X+X",
"+X+X+X+X+X+X+X+X+X+X+X+X+X+X+X+X+X+X+X[.2       c v.C.Z.A.S.A.A.S.S.A.Z.M.x           p '.+X+X+X+X+X+X+X+X+X+X+X+X+X+X+X+X+X+X+X",
"+X+X+X+X+X+X+X+X+X+X+X+X+X+X+X+X+X+X+X[.a     . 9.M.Z.A.Z.S.D.D.S.S.A.A.Z.7.          p ].+X+X+X+X+X+X+X+X+X+X+X+X+X+X+X+X+X+X+X",
"+X+X+X+X+X+X+X+X+X+X+X+X+X+X+X+X+X+X+X.Xa     8 k.C.Z.Z.Z.S.D.D.S.A.S.S.A.g..         p ].+X+X+X+X+X+X+X+X+X+X+X+X+X+X+X+X+X+X+X",
"+X+X+X+X+X+X+X+X+X+X+X+X+X+X+X+X+X+X+X'.1   . 9.M.C.A.A.A.S.D.D.D.S.S.A.Z.N.x         1 ].+X+X+X+X+X+X+X+X+X+X+X+X+X+X+X+X+X+X+X",
"+X+X+X+X+X+X+X+X+X+X+X+X+X+X+X+X+X+X+X^.2   A n.N.Z.A.S.S.D.F.F.F.D.S.A.A.C.c.S       2 ].+X+X+X+X+X+X+X+X+X+X+X+X+X+X+X+X+X+X+X",
"+X+X+X+X+X+X+X+X+X+X+X+X+X+X+X+X+X+X+X^.3   0.M.C.A.A.A.S.D.F.G.G.F.D.D.A.Z.C.C.7..   1 (.+X+X+X+X+X+X+X+X+X+X+X+X+X+X+X+X+X+X+X",
"+X+X+X+X+X+X+X+X+X+X+X+X+X+X+X+X+X+X+X~.2 + f.N.C.A.A.S.F.F.F.G.G.F.F.D.S.S.A.Z.N.4.  2 _.+X+X+X+X+X+X+X+X+X+X+X+X+X+X+X+X+X+X+X",
"+X+X+X+X+X+X+X+X+X+X+X+X+X+X+X+X+X+X+X!.3 @ h.C.Z.A.S.D.F.G.G.G.G.F.F.F.D.S.A.A.C.g.. p _.+X+X+X+X+X+X+X+X+X+X+X+X+X+X+X+X+X+X+X",
"+X+X+X+X+X+X+X+X+X+X+X+X+X+X+X+X+X+X+XR.: @ l.C.A.S.D.D.F.G.G.G.G.G.G.F.D.S.A.A.C.z.4 2 _.+X+X+X+X+X+X+X+X+X+X+X+X+X+X+X+X+X+X+X",
"+X+X+X+X+X+X+X+X+X+X+X+X+X+X+X+X+X+X+XT.: 4 l.Z.A.S.D.F.F.G.G.G.G.G.G.F.D.D.S.Z.Z.x.4 2 ].+X+X+X+X+X+X+X+X+X+X+X+X+X+X+X+X+X+X+X",
"+X+X+X+X+X+X+X+X+X+X+X+X+X+X+X+X+X+X+XY.* @ h.Z.A.S.D.D.F.F.G.G.G.F.F.F.D.D.A.Z.C.z.4 a ].+X+X+X+X+X+X+X+X+X+X+X+X+X+X+X+X+X+X+X",
"+X+X+X+X+X+X+X+X+X+X+X+X+X+X+X+X+X+X+XU.X + f.Z.A.S.D.D.F.F.F.G.G.G.F.D.D.D.S.A.A.z.@ 1 (.+X+X+X+X+X+X+X+X+X+X+X+X+X+X+X+X+X+X+X",
"+X+X+X+X+X+X+X+X+X+X+X+X+X+X+X+X+X+X+XU.X   v w.e.i.y.u.u.u.p.p.p.p.p.a.a.t.t.r.8.A . > W.+X+X+X+X+X+X+X+X+X+X+X+X+X+X+X+X+X+X+X",
"+X+X+X+X+X+X+X+X+X+X+X+X+X+X+X+X+X+X+XI.X     F H W / ..] ] O.O.O...#.O.] / W W F X   1 !.+X+X+X+X+X+X+X+X+X+X+X+X+X+X+X+X+X+X+X",
"+X+X+X+X+X+X+X+X+X+X+X+X+X+X+X+X+X+X+XI.o   = +.X.@.&.*.@.*.@.$.$.$.$.@.@.@.@.} %.u   1 ).+X+X+X+X+X+X+X+X+X+X+X+X+X+X+X+X+X+X+X",
"+X+X+X+X+X+X+X+X+X+X+X+X+X+X+X+X+X+X+XY.o   X r U $.@.@.+.@.+.@.@.@.@.@.@.@.+.U g o   1 (.+X+X+X+X+X+X+X+X+X+X+X+X+X+X+X+X+X+X+X",
"+X+X+X+X+X+X+X+X+X+X+X+X+X+X+X+X+X+X+XR.o       r O.........X.X.X.X.........} ,       > ~.+X+X+X+X+X+X+X+X+X+X+X+X+X+X+X+X+X+X+X",
"+X+X+X+X+X+X+X+X+X+X+X+X+X+X+X+X+X+X+XW.>       , { ....X.X.X.X.X.X.X.X.X...{ $       > ~.+X+X+X+X+X+X+X+X+X+X+X+X+X+X+X+X+X+X+X",
"+X+X+X+X+X+X+X+X+X+X+X+X+X+X+X+X+X+X+X~.>       , ! ` ....X.` X.X.` o.o.` _ Q ;       > (.+X+X+X+X+X+X+X+X+X+X+X+X+X+X+X+X+X+X+X",
"+X+X+X+X+X+X+X+X+X+X+X+X+X+X+X+X+X+X+X~.<       , ! ` ` ` ` ` ` ' ` o.' ` _ R $       1 _.+X+X+X+X+X+X+X+X+X+X+X+X+X+X+X+X+X+X+X",
"+X+X+X+X+X+X+X+X+X+X+X+X+X+X+X+X+X+X+XW.<       , ! ` ..X.` ` X.` ` X.` ` ` Q $       2 _.+X+X+X+X+X+X+X+X+X+X+X+X+X+X+X+X+X+X+X",
"+X+X+X+X+X+X+X+X+X+X+X+X+X+X+X+X+X+X+XR.X       9 ` ` ` ` X.X.X.` X.` ` ` ! _ -       = ~.+X+X+X+X+X+X+X+X+X+X+X+X+X+X+X+X+X+X+X",
"+X+X+X+X+X+X+X+X+X+X+X+X+X+X+X+X+X+X+XW.[ f d l T | } X.X.X.X.X.X.+.+.+.| } | T f a d z /.+X+X+X+X+X+X+X+X+X+X+X+X+X+X+X+X+X+X+X",
"+X+X+X+X+X+X+X+X+X+X+X+X+X+X+X+X+X+X+X[.P.K.>.>.,.,.:.:.;.-.-.-.-.-.-.:.>.:.=.=.:.1.:.J.XX+X+X+X+X+X+X+X+X+X+X+X+X+X+X+X+X+X+X+X",
"+X+X+X+X+X+X+X+X+X+X+X+X+X+X+X+X+X+X+X|.J.1.<.<.V.V.V.V.V.H.V.K.V.V.<.<.<.<.<.<.,.>.1.L.XX+X+X+X+X+X+X+X+X+X+X+X+X+X+X+X+X+X+X+X",
"+X+X+X+X+X+X+X+X+X+X+X+X+X+X+X+X+X+X+X~.d 1 a a h z R ) ) _ _ ) ) ) ) Q R T h f f f f ( /.+X+X+X+X+X+X+X+X+X+X+X+X+X+X+X+X+X+X+X",
"+X+X+X+X+X+X+X+X+X+X+X+X+X+X+X+X+X+X+X!.>           e P J K K J K K J J J t           X Q.+X+X+X+X+X+X+X+X+X+X+X+X+X+X+X+X+X+X+X",
"+X+X+X+X+X+X+X+X+X+X+X+X+X+X+X+X+X+X+X~.<           e ' ~ P P P P P P P I t           > ~.+X+X+X+X+X+X+X+X+X+X+X+X+X+X+X+X+X+X+X",
"+X+X+X+X+X+X+X+X+X+X+X+X+X+X+X+X+X+X+XQ.>           9 I P I P P P P K P J %           > ~.+X+X+X+X+X+X+X+X+X+X+X+X+X+X+X+X+X+X+X",
"+X+X+X+X+X+X+X+X+X+X+X+X+X+X+X+X+X+X+XQ.;           # J I L I P I I L J D #           > ~.+X+X+X+X+X+X+X+X+X+X+X+X+X+X+X+X+X+X+X",
"+X+X+X+X+X+X+X+X+X+X+X+X+X+X+X+X+X+X+X~.>           . P ^ P I L I I I I N .           > ~.+X+X+X+X+X+X+X+X+X+X+X+X+X+X+X+X+X+X+X",
"+X+X+X+X+X+X+X+X+X+X+X+X+X+X+X+X+X+X+X~.<             D P P P P P P I P N             > ~.+X+X+X+X+X+X+X+X+X+X+X+X+X+X+X+X+X+X+X",
"+X+X+X+X+X+X+X+X+X+X+X+X+X+X+X+X+X+X+X`.1             O m M N N D D D i %             > ~.+X+X+X+X+X+X+X+X+X+X+X+X+X+X+X+X+X+X+X",
"+X+X+X+X+X+X+X+X+X+X+X+X+X+X+X+X+X+X+X`.2               y N N M M m N 9               ; ~.+X+X+X+X+X+X+X+X+X+X+X+X+X+X+X+X+X+X+X",
"+X+X+X+X+X+X+X+X+X+X+X+X+X+X+X+X+X+X+X{.2               0 V J G J J G 9               ; ~.+X+X+X+X+X+X+X+X+X+X+X+X+X+X+X+X+X+X+X",
"+X+X+X+X+X+X+X+X+X+X+X+X+X+X+X+X+X+X+X[.a               6 M V V Z G V &               $ ~.+X+X+X+X+X+X+X+X+X+X+X+X+X+X+X+X+X+X+X",
"+X+X+X+X+X+X+X+X+X+X+X+X+X+X+X+X+X+X+X[.d               # n n n V B n #               ; ~.+X+X+X+X+X+X+X+X+X+X+X+X+X+X+X+X+X+X+X",
"+X+X+X+X+X+X+X+X+X+X+X+X+X+X+X+X+X+X+X{.a               + M C C V V N +               1 ~.+X+X+X+X+X+X+X+X+X+X+X+X+X+X+X+X+X+X+X",
"+X+X+X+X+X+X+X+X+X+X+X+X+X+X+X+X+X+X+X`.2                 6 w q q 0 9                 o E.+X+X+X+X+X+X+X+X+X+X+X+X+X+X+X+X+X+X+X",
"+X+X+X+X+X+X+X+X+X+X+X+X+X+X+X+X+X+X+X+X .o > > < 1 1 1 2 h Y Q R Y j 2 1 1 < < > > 2 l ~.+X+X+X+X+X+X+X+X+X+X+X+X+X+X+X+X+X+X+X",
"+X+X+X+X+X+X+X+X+X+X+X+X+X+X+X+X+X+X+X+X[.~.~.~./.{.{.`.{.XXXXXXXXXXXX[.'.{.`./.~.~.[.XX+X+X+X+X+X+X+X+X+X+X+X+X+X+X+X+X+X+X+X+X",
"+X+X+X+X+X+X+X+X+X+X+X+X+X+X+X+X+X+X+X+X+X+X+X+X+X+X+X+X+X+X+X+X+X+X+X+X+X+X+X+X+X+X+X+X+X+X+X+X+X+X+X+X+X+X+X+X+X+X+X+X+X+X+X+X",
"+X+X+X+X+X+X+X+X+X+X+X+X+X+X+X+X+X+X+X+X+X+X+X+X+X+X+X+X+X+X+X+X+X+X+X+X+X+X+X+X+X+X+X+X+X+X+X+X+X+X+X+X+X+X+X+X+X+X+X+X+X+X+X+X",
"+X+X+X+X+X+X+X+X+X+X+X+X+X+X+X+X+X+X+X+X+X+X+X+X+X+X+X+X+X+X+X+X+X+X+X+X+X+X+X+X+X+X+X+X+X+X+X+X+X+X+X+X+X+X+X+X+X+X+X+X+X+X+X+X"
};
