/* XPM */
static char *b742910034904d778d1fd0a17cf7c787FzlqviMHykSnoxJ0[] = {
/* columns rows colors chars-per-pixel */
"64 64 183 2 ",
"   c 0",
".  c #0B0303",
"X  c #0B0C0B",
"o  c #070808",
"O  c #130302",
"+  c #1B0200",
"@  c #150906",
"#  c #120D0C",
"$  c #1A0D09",
"%  c #190B07",
"&  c #11120F",
"*  c #1B120E",
"=  c #0F0F10",
"-  c #150F11",
";  c #0F1013",
":  c #141314",
">  c #1A1414",
",  c #141619",
"<  c #1B1B1B",
"1  c #230100",
"2  c #210903",
"3  c #220D09",
"4  c #24120B",
"5  c #34150B",
"6  c #3C160A",
"7  c #3D1608",
"8  c #211E1F",
"9  c #241811",
"0  c #301B15",
"q  c #3A1B12",
"w  c #3D241A",
"e  c #1D1E21",
"r  c #201F23",
"t  c #1F2020",
"y  c #222223",
"u  c #2A2A2A",
"i  c #352B25",
"p  c #312D2C",
"a  c #39312F",
"s  c #333231",
"d  c #3B3A38",
"f  c #551703",
"g  c #461308",
"h  c #6A1D00",
"j  c #572204",
"k  c #4C2516",
"l  c #442419",
"z  c #4B2619",
"x  c #4D2A1D",
"c  c #502817",
"v  c #542C1D",
"b  c #642201",
"n  c #742602",
"m  c #7D2501",
"M  c #4F2E22",
"N  c #422B2A",
"B  c #472C23",
"V  c #532E20",
"C  c #4F3226",
"Z  c #553225",
"A  c #55362A",
"S  c #5A372A",
"D  c #5B3A2C",
"F  c #593829",
"G  c #4A3734",
"H  c #443D3B",
"J  c #4E3D3A",
"K  c #473834",
"L  c #5A3233",
"P  c #543C3A",
"I  c #5C3D3C",
"U  c #563837",
"Y  c #633A3A",
"T  c #3F403E",
"R  c #54433E",
"E  c #5A443D",
"W  c #63453D",
"Q  c #65483E",
"!  c #644235",
"~  c #71443A",
"^  c #3F3F40",
"/  c #5E3F43",
"(  c #5F3F48",
")  c #613E44",
"_  c #613E48",
"`  c #4D4C4E",
"'  c #5D4145",
"]  c #5B4946",
"[  c #5E4A49",
"{  c #534946",
"}  c #545555",
"|  c #644542",
" . c #644944",
".. c #694942",
"X. c #634C4A",
"o. c #6A4E4B",
"O. c #704F48",
"+. c #6D514B",
"@. c #605249",
"#. c #71504C",
"$. c #675353",
"%. c #6D6C6C",
"&. c #746C6D",
"*. c #766F71",
"=. c #767374",
"-. c #797676",
";. c #7D797A",
":. c #A60D00",
">. c #A11E00",
",. c #812B07",
"<. c #962B00",
"1. c #823101",
"2. c #9E3800",
"3. c #943401",
"4. c #A32B02",
"5. c #A33401",
"6. c #C03F01",
"7. c #A74403",
"8. c #BD4A02",
"9. c #AD5206",
"0. c #B45D0C",
"q. c #BA620C",
"w. c #B6640F",
"e. c #AF6712",
"r. c #B26511",
"t. c #B16813",
"y. c #8B523D",
"u. c #CB4F01",
"i. c #C05607",
"p. c #D45D01",
"a. c #DA5900",
"s. c #F74400",
"d. c #DC6501",
"f. c #DA6501",
"g. c #E46301",
"h. c #ED6502",
"j. c #E66E00",
"k. c #FD6D01",
"l. c #F46701",
"z. c #FE7200",
"x. c #FE7C00",
"c. c #BB5643",
"v. c #817C7C",
"b. c #FE8400",
"n. c #FE8B00",
"m. c #FF9300",
"M. c #FF9B00",
"N. c #FFA400",
"B. c #FFAC00",
"V. c #FFB200",
"C. c #828181",
"Z. c #878887",
"A. c #948E8B",
"S. c #A7A7A6",
"D. c #D5D5D7",
"F. c #DBDBDD",
"G. c #E1DEDD",
"H. c #DEE0E2",
"J. c #E5E5E6",
"K. c #E9E9E5",
"L. c #E7E9EA",
"P. c #EBECEC",
"I. c #E6E7E9",
"U. c #EEF0EC",
"Y. c #F2F2EE",
"T. c #ECEEF1",
"R. c #F0EFF1",
"E. c #EFF1F5",
"W. c #EEF0F2",
"Q. c #F1F1F1",
"!. c #F2F2F3",
"~. c #F1F2F2",
"^. c #F1F3F5",
"/. c #F5F5F6",
"(. c #F4F4F4",
"). c #F6F7F8",
"_. c #F7F7F8",
"`. c #F7F9F9",
"'. c #FEFEFE",
"]. c white",
"[. c 0",
"{. c #FEFEFE",
"}. c #FFFFFF",
/* pixels */
"[.[.[.[.[.[.[.[.[.[.[.[.[.[.[.[.[.[.[.[.[.[.[.[.[.[.[.[.[.[.[.[.[.[.[.[.[.[.[.[.[.[.[.[.[.[.[.[.[.[.[.[.[.[.[.[.[.[.[.[.[.[.[.[.",
"[.[.[.[.[.[.[.[.[.[.[.[.[.[.[.[.[.[.[.[.[.[.[.[.[.[.[.[.[.[.[.[.[.[.[.[.[.[.[.[.[.[.[.[.[.[.[.[.[.[.[.[.[.[.[.[.[.[.[.[.[.[.[.[.",
"[.[.[.[.[.[.[.[.[.[.[.[.[.[.[.[.[.[.[.[.[.[.[.[.[.[.[.[.[.[.[.[.[.[.[.[.[.[.[.[.[.[.[.[.[.[.[.[.[.[.[.[.[.[.[.[.[.[.[.[.[.[.[.[.",
"[.[.[.[.[.[.[.[.[.[.[.[.[.[.[.[.[.[.[.[.[.[.[.[.[.[.[.[.[.[.[.[.[.[.[.[.[.[.[.[.[.[.[.[.[.[.[.[.[.[.[.[.[.[.[.[.[.[.[.[.[.[.[.[.",
"[.[.[.[.[.[.[.[.[.[.[.[.[.[.[.[.[.[.[.[.[.[.[.[.[.[.[.[.[.[.[.[.[.[.[.[.[.[.[.[.[.[.[.[.[.[.[.[.[.[.[.[.[.[.[.[.[.[.[.[.[.[.[.[.",
"[.[.[.[.[.[.[.[.[.[.[.[.[.[.[.[.[.[.[.[.[.[.[.[.[.[.[.[.[.[.[.[.[.[.[.[.[.[.[.[.[.[.[.[.[.[.[.[.[.[.[.[.[.[.[.[.[.[.[.[.[.[.[.[.",
"[.[.[.[.[.[.[.[.[.[.[.[.[.[.[.[.[.[.[.[.[.[.[.[.[.[.[.[.[.[.[.[.[.[.[.[.[.[.[.[.[.[.[.[.[.[.[.[.[.[.[.[.[.[.[.[.[.[.[.[.[.[.[.[.",
"[.[.[.[.[.[.[.[.[.[.[.[.[.[.[.[.[.[.[.[.[.[.[.[.[.[.[.[.[.[.[.[.[.[.[.[.[.[.[.[.[.[.[.[.[.[.[.[.[.[.[.[.[.[.[.[.[.[.[.[.[.[.[.[.",
"[.[.[.[.[.[.[.[.[.[.[.[.[.[.[.[.[.[.[.[.[.[.[.[.[.[.[.[.[.[.[.[.[.[.[.[.[.[.[.[.[.[.[.[.[.[.[.[.[.[.[.[.[.[.[.[.[.[.[.[.[.[.[.[.",
"[.[.[.[.[.[.[.[.[.[.[.[.[.[.[.[.[.[.[.[.[.[.[.[.[.[.[.[.[.[.[.[.[.[.[.[.[.[.[.[.[.[.[.[.[.[.[.[.[.[.[.[.[.[.[.[.[.[.[.[.[.[.[.[.",
"[.[.[.[.[.[.[.[.[.[.[.[.[.[.[.[.[.[.[.[.[.[.[.[.[.[.[.[.[.[.[.[.[.[.[.[.[.[.[.[.[.[.[.[.[.[.[.[.[.[.[.[.[.[.[.[.[.[.[.[.[.[.[.[.",
"[.[.[.[.[.[.[.[.[.[.[.[.[.[.[.[.[.[.[.[.[.[.[.[.[.[.[.[.[.[.[.[.[.[.[.[.[.[.[.[.[.[.[.[.[.[.[.[.[.[.[.[.[.[.[.[.[.[.[.[.[.[.[.[.",
"[.[.[.[.[.[.[.[.[.[.[.[.[.[.[.[.[.[.[.[.[.[.[.[.[.[.[.[.[.[.[.[.[.[.[.[.[.[.[.[.[.[.[.[.[.[.[.[.[.[.[.[.[.[.[.[.[.[.[.[.[.[.[.[.",
"[.[.[.[.[.[.[.[.[.[.[.[.[.[.[.[.[.[.[.[.[.                      O :.s.>.              [.[.[.[.[.[.[.[.[.[.[.[.[.[.[.[.[.[.[.[.[.",
"[.[.[.[.[.[.[.[.[.[.[.[.[.[.[.[.[.[.[.[.[.                    O 4.k.x.h.7             [.[.[.[.[.[.[.[.[.[.[.[.[.[.[.[.[.[.[.[.[.",
"[.[.[.[.[.[.[.[.[.[.[.[.[.[.[.[.[.[.[.[.[.                  . <.z.b.x.b.2.            [.[.[.[.[.[.[.[.[.[.[.[.[.[.[.[.[.[.[.[.[.",
"[.[.[.[.[.[.[.[.[.[.[.[.[.[.[.[.[.[.[.[.[.                  f k.n.n.n.n.k.f           [.[.[.[.[.[.[.[.[.[.[.[.[.[.[.[.[.[.[.[.[.",
"[.[.[.[.[.[.[.[.[.[.[.[.[.[.[.[.[.[.[.[.[.                  5.x.n.m.n.n.b.5.          [.[.[.[.[.[.[.[.[.[.[.[.[.[.[.[.[.[.[.[.[.",
"[.[.[.[.[.[.[.[.[.[.[.[.[.[.[.[.[.[.[.[.[.                2 a.b.n.m.m.m.n.a.O         [.[.[.[.[.[.[.[.[.[.[.[.[.[.[.[.[.[.[.[.[.",
"[.[.[.[.[.[.[.[.[.[.[.[.[.[.[.[.[.[.[.[.[.                n x.m.M.m.m.m.n.x.h         [.[.[.[.[.[.[.[.[.[.[.[.[.[.[.[.[.[.[.[.[.",
"[.[.[.[.[.[.[.[.[.[.[.[.[.[.[.[.[.[.[.[.[.              b h.n.M.M.m.m.m.m.n.h.m       [.[.[.[.[.[.[.[.[.[.[.[.[.[.[.[.[.[.[.[.[.",
"[.[.[.[.[.[.[.[.[.[.[.[.[.[.[.[.[.[.[.[.[.            n z.n.m.M.m.m.m.M.m.n.b.b.3.    [.[.[.[.[.[.[.[.[.[.[.[.[.[.[.[.[.[.[.[.[.",
"[.[.[.[.[.[.[.[.[.[.[.[.[.[.[.[.[.[.[.[.[.          g l.b.n.m.M.M.M.M.m.m.m.m.m.x.m   [.[.[.[.[.[.[.[.[.[.[.[.[.[.[.[.[.[.[.[.[.",
"[.[.[.[.[.[.[.[.[.[.[.[.[.[.[.[.[.[.[.[.[.          3.x.n.m.m.M.N.M.M.N.M.m.m.m.b.6.  [.[.[.[.[.[.[.[.[.[.[.[.[.[.[.[.[.[.[.[.[.",
"[.[.[.[.[.[.[.[.[.[.[.[.[.[.[.[.[.[.[.[.[.        + a.b.n.m.M.N.N.N.N.N.M.n.m.m.b.u.. [.[.[.[.[.[.[.[.[.[.[.[.[.[.[.[.[.[.[.[.[.",
"[.[.[.[.[.[.[.[.[.[.[.[.[.[.[.[.[.[.[.[.[.        h z.n.n.M.N.N.V.V.B.N.M.m.m.n.n.p.O [.[.[.[.[.[.[.[.[.[.[.[.[.[.[.[.[.[.[.[.[.",
"[.[.[.[.[.[.[.[.[.[.[.[.[.[.[.[.[.[.[.[.[.      b g.b.m.M.N.B.B.V.V.V.N.M.m.m.n.n.f.+ [.[.[.[.[.[.[.[.[.[.[.[.[.[.[.[.[.[.[.[.[.",
"[.[.[.[.[.[.[.[.[.[.[.[.[.[.[.[.[.[.[.[.[.  . m k.b.n.M.M.N.V.B.B.V.B.N.N.M.m.n.b.d.+ [.[.[.[.[.[.[.[.[.[.[.[.[.[.[.[.[.[.[.[.[.",
"[.[.[.[.[.[.[.[.[.[.[.[.[.[.[.[.[.[.[.[.[.  1.z.x.n.m.M.N.B.V.V.V.V.V.N.N.M.m.n.b.d.1 [.[.[.[.[.[.[.[.[.[.[.[.[.[.[.[.[.[.[.[.[.",
"[.[.[.[.[.[.[.[.[.[.[.[.[.[.[.[.[.[.[.[.[.  8.x.n.n.m.M.N.B.V.V.V.V.V.N.N.N.M.m.n.g.1 [.[.[.[.[.[.[.[.[.[.[.[.[.[.[.[.[.[.[.[.[.",
"[.[.[.[.[.[.[.[.[.[.[.[.[.[.[.[.[.[.[.[.[.+ p.b.b.m.M.M.N.N.B.V.V.B.N.N.N.M.M.n.b.d.1 [.[.[.[.[.[.[.[.[.[.[.[.[.[.[.[.[.[.[.[.[.",
"[.[.[.[.[.[.[.[.[.[.[.[.[.[.[.[.[.[.[.[.[.+ d.n.m.M.N.N.N.V.V.V.V.V.B.N.N.N.M.M.m.j.1 [.[.[.[.[.[.[.[.[.[.[.[.[.[.[.[.[.[.[.[.[.",
"[.[.[.[.[.[.[.[.[.[.[.[.[.[.[.[.[.[.[.[.[.  j 7.9.0.w.r.r.t.t.t.e.r.r.r.w.q.i.8.7.,.. [.[.[.[.[.[.[.[.[.[.[.[.[.[.[.[.[.[.[.[.[.",
"[.[.[.[.[.[.[.[.[.[.[.[.[.[.[.[.[.[.[.[.[.    N L L Y | ) | ' ( ' ' _ _ / I U U N X   [.[.[.[.[.[.[.[.[.[.[.[.[.[.[.[.[.[.[.[.[.",
"[.[.[.[.[.[.[.[.[.[.[.[.[.[.[.[.[.[.[.[.[.  : X.| ..O.#.o.#.o.+.+.+.o.o.o.o.o.[ @.i   [.[.[.[.[.[.[.[.[.[.[.[.[.[.[.[.[.[.[.[.[.",
"[.[.[.[.[.[.[.[.[.[.[.[.[.[.[.[.[.[.[.[.[.  o 8 K o.o.o.o.o.X.o.o.X.o.o.o.o.$.a < #   [.[.[.[.[.[.[.[.[.[.[.[.[.[.[.[.[.[.[.[.[.",
"[.[.[.[.[.[.[.[.[.[.[.[.[.[.[.[.[.[.[.[.[.      > | | | | | |  .| | | |  .| [ >       [.[.[.[.[.[.[.[.[.[.[.[.[.[.[.[.[.[.[.[.[.",
"[.[.[.[.[.[.[.[.[.[.[.[.[.[.[.[.[.[.[.[.[.      > / | | | | | | | | | | |  .' #       [.[.[.[.[.[.[.[.[.[.[.[.[.[.[.[.[.[.[.[.[.",
"[.[.[.[.[.[.[.[.[.[.[.[.[.[.[.[.[.[.[.[.[.      - I | | W W | | | W ....| | P #       [.[.[.[.[.[.[.[.[.[.[.[.[.[.[.[.[.[.[.[.[.",
"[.[.[.[.[.[.[.[.[.[.[.[.[.[.[.[.[.[.[.[.[.      # U W W W W W W W W  .W W E G #       [.[.[.[.[.[.[.[.[.[.[.[.[.[.[.[.[.[.[.[.[.",
"[.[.[.[.[.[.[.[.[.[.[.[.[.[.[.[.[.[.[.[.[.      # I W W  .W W  .W W  .W W W J #       [.[.[.[.[.[.[.[.[.[.[.[.[.[.[.[.[.[.[.[.[.",
"[.[.[.[.[.[.[.[.[.[.[.[.[.[.[.[.[.[.[.[.[.      $ I W W W  . .Q W Q W W W I I *       [.[.[.[.[.[.[.[.[.[.[.[.[.[.[.[.[.[.[.[.[.",
"[.[.[.[.[.[.[.[.[.[.[.[.[.[.[.[.[.[.[.[.[.u u s H ] ]  . . . . .X.X.X.X.[ ] { H p u u [.[.[.[.[.[.[.[.[.[.[.[.[.[.[.[.[.[.[.[.[.",
"[.[.[.[.[.[.[.[.[.[.[.[.[.[.[.[.[.[.[.[.[.C.=.=.=.-.=.=.*.&.&.&.&.&.&.*.=.=.%.%.=.=.%.[.[.[.[.[.[.[.[.[.[.[.[.[.[.[.[.[.[.[.[.[.",
"[.[.[.[.[.[.[.[.[.[.[.[.[.[.[.[.[.[.[.[.[.;.;.;.;.;.v.v.v.v.v.v.v.v.;.;.;.;.;.;.-.=.-.[.[.[.[.[.[.[.[.[.[.[.[.[.[.[.[.[.[.[.[.[.",
"[.[.[.[.[.[.[.[.[.[.[.[.[.[.[.[.[.[.[.[.[.< y u s d J R E E E E E E R R R H s s s s s [.[.[.[.[.[.[.[.[.[.[.[.[.[.[.[.[.[.[.[.[.",
"[.[.[.[.[.[.[.[.[.[.[.[.[.[.[.[.[.[.[.[.[.          0 D A A A Z A A A C C 9           [.[.[.[.[.[.[.[.[.[.[.[.[.[.[.[.[.[.[.[.[.",
"[.[.[.[.[.[.[.[.[.[.[.[.[.[.[.[.[.[.[.[.[.          0 ! D D D D D D D A A 9           [.[.[.[.[.[.[.[.[.[.[.[.[.[.[.[.[.[.[.[.[.",
"[.[.[.[.[.[.[.[.[.[.[.[.[.[.[.[.[.[.[.[.[.          4 S D S D D D D A S Z $           [.[.[.[.[.[.[.[.[.[.[.[.[.[.[.[.[.[.[.[.[.",
"[.[.[.[.[.[.[.[.[.[.[.[.[.[.[.[.[.[.[.[.[.          @ Z S Z S D S S Z Z M @           [.[.[.[.[.[.[.[.[.[.[.[.[.[.[.[.[.[.[.[.[.",
"[.[.[.[.[.[.[.[.[.[.[.[.[.[.[.[.[.[.[.[.[.          . S D D S F D S S S x .           [.[.[.[.[.[.[.[.[.[.[.[.[.[.[.[.[.[.[.[.[.",
"[.[.[.[.[.[.[.[.[.[.[.[.[.[.[.[.[.[.[.[.[.            B D D D S D D S D x             [.[.[.[.[.[.[.[.[.[.[.[.[.[.[.[.[.[.[.[.[.",
"[.[.[.[.[.[.[.[.[.[.[.[.[.[.[.[.[.[.[.[.[.            . l l x x M M M w $             [.[.[.[.[.[.[.[.[.[.[.[.[.[.[.[.[.[.[.[.[.",
"[.[.[.[.[.[.[.[.[.[.[.[.[.[.[.[.[.[.[.[.[.              q z x z z l x 4               [.[.[.[.[.[.[.[.[.[.[.[.[.[.[.[.[.[.[.[.[.",
"[.[.[.[.[.[.[.[.[.[.[.[.[.[.[.[.[.[.[.[.[.              5 v Z V Z Z V 4               [.[.[.[.[.[.[.[.[.[.[.[.[.[.[.[.[.[.[.[.[.",
"[.[.[.[.[.[.[.[.[.[.[.[.[.[.[.[.[.[.[.[.[.              3 z v v v V v %               [.[.[.[.[.[.[.[.[.[.[.[.[.[.[.[.[.[.[.[.[.",
"[.[.[.[.[.[.[.[.[.[.[.[.[.[.[.[.[.[.[.[.[.              @ k k k v c k @               [.[.[.[.[.[.[.[.[.[.[.[.[.[.[.[.[.[.[.[.[.",
"[.[.[.[.[.[.[.[.[.[.[.[.[.[.[.[.[.[.[.[.[.              O z z k c v z O               [.[.[.[.[.[.[.[.[.[.[.[.[.[.[.[.[.[.[.[.[.",
"[.[.[.[.[.[.[.[.[.[.[.[.[.[.[.[.[.[.[.[.[.                2 6 6 6 5 4                 [.[.[.[.[.[.[.[.[.[.[.[.[.[.[.[.[.[.[.[.[.",
"[.[.[.[.[.[.[.[.[.[.[.[.[.[.[.[.[.[.[.[.[.[.[.[.[.[.[.[.[.[.[.[.[.[.[.[.[.[.[.[.[.[.[.[.[.[.[.[.[.[.[.[.[.[.[.[.[.[.[.[.[.[.[.[.",
"[.[.[.[.[.[.[.[.[.[.[.[.[.[.[.[.[.[.[.[.[.[.[.[.[.[.[.[.[.[.[.[.[.[.[.[.[.[.[.[.[.[.[.[.[.[.[.[.[.[.[.[.[.[.[.[.[.[.[.[.[.[.[.[.",
"[.[.[.[.[.[.[.[.[.[.[.[.[.[.[.[.[.[.[.[.[.[.[.[.[.[.[.[.[.[.[.[.[.[.[.[.[.[.[.[.[.[.[.[.[.[.[.[.[.[.[.[.[.[.[.[.[.[.[.[.[.[.[.[.",
"[.[.[.[.[.[.[.[.[.[.[.[.[.[.[.[.[.[.[.[.[.[.[.[.[.[.[.[.[.[.[.[.[.[.[.[.[.[.[.[.[.[.[.[.[.[.[.[.[.[.[.[.[.[.[.[.[.[.[.[.[.[.[.[.",
"[.[.[.[.[.[.[.[.[.[.[.[.[.[.[.[.[.[.[.[.[.[.[.[.[.[.[.[.[.[.[.[.[.[.[.[.[.[.[.[.[.[.[.[.[.[.[.[.[.[.[.[.[.[.[.[.[.[.[.[.[.[.[.[."
};
