/* XPM */
static char *c8bc758c87dd4531b0de4e05446c1ff8k4EgI4R3rsmZOJex[] = {
/* columns rows colors chars-per-pixel */
"64 64 188 2 ",
"   c #010100",
".  c #0C0302",
"X  c #070708",
"o  c #0B0D0C",
"O  c #050B07",
"+  c #120301",
"@  c #1B0000",
"#  c #150906",
"$  c #120D0C",
"%  c #1A0D0A",
"&  c #0B110D",
"*  c #19120E",
"=  c #0F0F11",
"-  c #120F10",
";  c #0E1213",
":  c #131214",
">  c #191414",
",  c #15161A",
"<  c #181719",
"1  c #1B1B1C",
"2  c #161A1F",
"3  c #220300",
"4  c #220A04",
"5  c #200F09",
"6  c #3F0902",
"7  c #24120B",
"8  c #34140B",
"9  c #3C160A",
"0  c #3D190E",
"q  c #2F1A15",
"w  c #221C1D",
"e  c #241713",
"r  c #3A1B12",
"t  c #1F201F",
"y  c #3C2319",
"u  c #2A2319",
"i  c #1D1C20",
"p  c #201F20",
"a  c #1F2022",
"s  c #232322",
"d  c #2A2926",
"f  c #2A2B2A",
"g  c #292727",
"h  c #322D2D",
"j  c #3A2926",
"k  c #2F3329",
"l  c #32302F",
"z  c #3E302F",
"x  c #333231",
"c  c #3B3B3A",
"v  c #3D3635",
"b  c #480F02",
"n  c #461605",
"m  c #5C1A00",
"M  c #661E02",
"N  c #4C2516",
"B  c #432418",
"V  c #4B2619",
"C  c #4C2A1C",
"Z  c #542C1C",
"A  c #512819",
"S  c #6E2702",
"D  c #7D2903",
"F  c #4F2E21",
"G  c #472C27",
"H  c #522F21",
"J  c #552D2E",
"K  c #4F3326",
"L  c #553224",
"P  c #5A3627",
"I  c #553629",
"U  c #5A3729",
"Y  c #5B392C",
"T  c #57392C",
"R  c #4D3936",
"E  c #443D3B",
"W  c #483836",
"Q  c #5A3436",
"!  c #5C343C",
"~  c #523C3B",
"^  c #5A3C3B",
"/  c #603D2E",
"(  c #603F31",
")  c #54423D",
"_  c #5C423C",
"`  c #63453E",
"'  c #64483F",
"]  c #664335",
"[  c #3F3F40",
"{  c #5F3F44",
"}  c #623D45",
"|  c #4C4C4D",
" . c #5E4145",
".. c #5B4A46",
"X. c #5D4A4A",
"o. c #544645",
"O. c #565757",
"+. c #634542",
"@. c #654945",
"#. c #6B4C43",
"$. c #654C4A",
"%. c #6B4D4A",
"&. c #61414A",
"*. c #6E5149",
"=. c #72524D",
"-. c #6A5251",
";. c #645050",
":. c #6D6C6C",
">. c #736B6C",
",. c #746E70",
"<. c #767374",
"1. c #7A7576",
"2. c #7A7678",
"3. c #7D797A",
"4. c #7C7877",
"5. c #980E00",
"6. c #852A00",
"7. c #8E2901",
"8. c #942900",
"9. c #953704",
"0. c #A43600",
"q. c #A03D00",
"w. c #C42200",
"e. c #A84806",
"r. c #B14402",
"t. c #A45E13",
"y. c #A15512",
"u. c #BA660E",
"i. c #AB6513",
"p. c #A66216",
"a. c #B26211",
"s. c #A4553E",
"d. c #C44D01",
"f. c #C54701",
"g. c #D74B00",
"h. c #CA5B03",
"j. c #D35A01",
"k. c #FA4100",
"l. c #E85602",
"z. c #F25E01",
"x. c #DB6501",
"c. c #C26607",
"v. c #EC6601",
"b. c #E46001",
"n. c #F46500",
"m. c #FE6E01",
"M. c #F86400",
"N. c #FF7400",
"B. c #FF7C00",
"V. c #CC603F",
"C. c #817C7C",
"Z. c #FE8500",
"A. c #FE8C00",
"S. c #FF9400",
"D. c #FF9B00",
"F. c #FFA300",
"G. c #FFAB00",
"H. c #FFB300",
"J. c #838383",
"K. c #938C8B",
"L. c #A7A7A6",
"P. c #D6D7D9",
"I. c #DADBDD",
"U. c #DEDFE2",
"Y. c #E4E5E6",
"T. c #E6E7E9",
"R. c #ECECEC",
"E. c #E8E9E8",
"W. c #EFF0EC",
"Q. c #F2F2EE",
"!. c #EEEFF1",
"~. c #EBEEF1",
"^. c #F0EFF0",
"/. c #EFF1F4",
"(. c #EEF0F3",
"). c #F1F1F2",
"_. c #F2F3F5",
"`. c #F3F4F5",
"'. c #F5F6F6",
"]. c #F4F4F4",
"[. c #F7F8F7",
"{. c #F5F6F8",
"}. c #FEFEFE",
"|. c white",
" X c #FFFFFE",
".X c #FEFEFE",
"XX c #FFFFFF",
"oX c #F7F8F7",
/* pixels */
" X X X X X X X X X X X X X X X X X X X X X X X X X X X X X X X X X X X X X X X X X X X X X X X X X X X X X X X X X X X X X X X X",
" X X X X X X X X X X X X X X X X X X X X X X X X X X X X X X X X X X X X X X X X X X X X X X X X X X X X X X X X X X X X X X X X",
" X X X X X X X X X X X X X X X X X X X X X X X X X X X X X X X X X X X X X X X X X X X X X X X X X X X X X X X X X X X X X X X X",
" X X X X X X X X X X X X X X X X X X X X X X X X X X X X X X X X X X X X X X X X X X X X X X X X X X X X X X X X X X X X X X X X",
" X X X X X X X X X X X X X X X X X X X X X X X X X X X X X X X X X X X X X X X X X X X X X X X X X X X X X X X X X X X X X X X X",
" X X X X X X X X X X X X X X X X X X X X X X X X X X X X X X X X X X X X X X X X X X X X X X X X X X X X X X X X X X X X X X X X",
" X X X X X X X X X X X X X X X X X X X X X X X X X X X X X X X X X X X X X X X X X X X X X X X X X X X X X X X X X X X X X X X X",
" X X X X X X X X X X X X X X X X X X X X X X X X X X X X X X X X X X X X X X X X X X X X X X X X X X X X X X X X X X X X X X X X",
" X X X X X X X X X X X X X X X X X X X X X X X X X X X X X X X X X X X X X X X X X X X X X X X X X X X X X X X X X X X X X X X X",
" X X X X X X X X X X X X X X X X X X X X X X X X X X X X X X X X X X X X X X X X X X X X X X X X X X X X X X X X X X X X X X X X",
" X X X X X X X X X X X X X X X X X X X X X X X X X X X X X X X X X X X X X X X X X X X X X X X X X X X X X X X X X X X X X X X X",
" X X X X X X X X X X X X X X X X X X X X[.)._.!.!.)._._.'.}. X X XoX].^.).!.!.)._._.'. X X X X X X X X X X X X X X X X X X X X X",
" X X X X X X X X X X X X X X X X X X X(.c 1 s 1 1 a t s g h s.V.] k d s s s s g g g f E ). X X X X X X X X X X X X X X X X X X X",
" X X X X X X X X X X X X X X X X X X X(.o                 + w.k.5.                      Y. X X X X X X X X X X X X X X X X X X X",
" X X X X X X X X X X X X X X X X X X X'.s                 b l.B.m.9.                  1 ~. X X X X X X X X X X X X X X X X X X X",
" X X X X X X X X X X X X X X X X X X X`.1                 7.N.A.A.B.7..               2 /. X X X X X X X X X X X X X X X X X X X",
" X X X X X X X X X X X X X X X X X X X`.1               6 l.Z.S.S.A.B.r..             1 /. X X X X X X X X X X X X X X X X X X X",
" X X X X X X X X X X X X X X X X X X X'.1               8.N.A.D.D.S.Z.Z.q.            i `. X X X X X X X X X X X X X X X X X X X",
" X X X X X X X X X X X X X X X X X X X'.1             3 g.B.A.S.D.D.S.S.N.m           1 `. X X X X X X X X X X X X X X X X X X X",
" X X X X X X X X X X X X X X X X X X X'.1             6.N.A.S.D.D.D.S.S.Z.0.          i '. X X X X X X X X X X X X X X X X X X X",
" X X X X X X X X X X X X X X X X X X X'.1           M n.Z.S.D.F.D.D.D.S.A.j.+         a oX X X X X X X X X X X X X X X X X X X X",
" X X X X X X X X X X X X X X X X X X X'.1         M M.Z.S.D.S.D.F.D.S.S.A.B.m         1 `. X X X X X X X X X X X X X X X X X X X",
" X X X X X X X X X X X X X X X X X X X'.1       n z.B.A.S.D.D.F.G.F.D.S.S.A.v.6.      a oX X X X X X X X X X X X X X X X X X X X",
" X X X X X X X X X X X X X X X X X X X'.p       8.m.A.S.S.D.F.G.G.G.D.S.S.A.Z.B.0..   2 !. X X X X X X X X X X X X X X X X X X X",
" X X X X X X X X X X X X X X X X X X X[.s     3 g.B.A.S.S.F.G.H.G.G.F.S.S.S.A.A.N.7.  2 !. X X X X X X X X X X X X X X X X X X X",
" X X X X X X X X X X X X X X X X X X X).>     D m.A.S.S.D.G.G.H.H.G.F.F.D.S.S.S.B.f.  i ~. X X X X X X X X X X X X X X X X X X X",
" X X X X X X X X X X X X X X X X X X XR.>   S n.Z.S.D.F.G.H.H.H.H.H.G.F.D.A.S.A.Z.j.+ i /. X X X X X X X X X X X X X X X X X X X",
" X X X X X X X X X X X X X X X X X X XE.: . d.B.A.S.D.F.G.H.H.H.H.H.G.F.D.S.A.Z.A.x.@ w _. X X X X X X X X X X X X X X X X X X X",
" X X X X X X X X X X X X X X X X X X XY.; 4 x.Z.A.F.G.G.G.H.H.H.H.H.H.G.D.D.S.Z.A.x.@ w `. X X X X X X X X X X X X X X X X X X X",
" X X X X X X X X X X X X X X X X X X XY.; 3 v.A.D.F.G.G.G.H.H.H.H.H.H.G.F.D.D.A.A.x.3 , /. X X X X X X X X X X X X X X X X X X X",
" X X X X X X X X X X X X X X X X X X XU.& 3 b.A.D.F.F.G.G.H.H.H.H.H.G.G.F.D.D.A.Z.x.3 2 /. X X X X X X X X X X X X X X X X X X X",
" X X X X X X X X X X X X X X X X X X XP.O + j.A.S.F.F.G.G.H.H.H.H.H.G.G.G.G.F.D.S.x.@ , ~. X X X X X X X X X X X X X X X X X X X",
" X X X X X X X X X X X X X X X X X X XP.O   n 9.y.y.t.t.t.t.p.i.i.i.i.a.u.c.h.d.r.D . ; T. X X X X X X X X X X X X X X X X X X X",
" X X X X X X X X X X X X X X X X X X XI.o     G J Q ^ +.{ } } &. .{ } } } ! Q Q j X   , R. X X X X X X X X X X X X X X X X X X X",
" X X X X X X X X X X X X X X X X X X XI.o   : -.+.#.*.=.%.%.%.%.*.%.%.%.%.@.%.X...u   1 ~. X X X X X X X X X X X X X X X X X X X",
" X X X X X X X X X X X X X X X X X X XI.o   X 1 W -.%.%.$.$.$.%.$.$.%.$.%.$.;.z w o   , ~. X X X X X X X X X X X X X X X X X X X",
" X X X X X X X X X X X X X X X X X X XU.o       e $.+.@.@.@.@.@.@.+.+.+.@.+...>       : R. X X X X X X X X X X X X X X X X X X X",
" X X X X X X X X X X X X X X X X X X XY.=       >  .+.+.+.+.+.+.@.+.@.+.+.@. .$       : R. X X X X X X X X X X X X X X X X X X X",
" X X X X X X X X X X X X X X X X X X XT.;       > ^ +.+.' ` ` +.+.` #.@.+.+.~ $       : !. X X X X X X X X X X X X X X X X X X X",
" X X X X X X X X X X X X X X X X X X XY.:       $ ^ +.' ' ' ` +.` ` @.` ' _ R $       < /. X X X X X X X X X X X X X X X X X X X",
" X X X X X X X X X X X X X X X X X X XY.:       $ ^ +.+.@.' ' @.' ' +.` ` ' R $       1 (. X X X X X X X X X X X X X X X X X X X",
" X X X X X X X X X X X X X X X X X X XY.X       % _ ` ` ' @.@.' ' ` ' ' _ _ _ *       : E. X X X X X X X X X X X X X X X X X X X",
" X X X X X X X X X X X X X X X X X X XY.| f f x E ....@.@.@.@.@.$.$.$.$.X...o.E h g g [ Q. X X X X X X X X X X X X X X X X X X X",
" X X X X X X X X X X X X X X X X X X X'.L.J.<.<.<.2.<.<.,.>.>.>.>.>.>.,.<.<.:.:.,.<.:.J.}. X X X X X X X X X X X X X X X X X X X",
" X X X X X X X X X X X X X X X X X X XoXJ.3.4.3.3.3.C.C.C.C.C.C.C.3.4.1.2.3.3.3.<.<.<.K.}. X X X X X X X X X X X X X X X X X X X",
" X X X X X X X X X X X X X X X X X X XE.d 1 s g h v ~ ) _ _ _ _ _ ) ) ) ) E x l x x l o.Q. X X X X X X X X X X X X X X X X X X X",
" X X X X X X X X X X X X X X X X X X XE.:           q T I I T I I I I K K e           X E. X X X X X X X X X X X X X X X X X X X",
" X X X X X X X X X X X X X X X X X X XT.:           q ] ( Y T T U T T U T e           : R. X X X X X X X X X X X X X X X X X X X",
" X X X X X X X X X X X X X X X X X X XY.:           7 U Y U U Y Y U I U L %           : R. X X X X X X X X X X X X X X X X X X X",
" X X X X X X X X X X X X X X X X X X XY.=           # L U P U U U P L P F #           : R. X X X X X X X X X X X X X X X X X X X",
" X X X X X X X X X X X X X X X X X X XE.:           . Y / Y U P U U U P C .           : ~. X X X X X X X X X X X X X X X X X X X",
" X X X X X X X X X X X X X X X X X X XR.:             G Y Y Y U Y U U U C             : ~. X X X X X X X X X X X X X X X X X X X",
" X X X X X X X X X X X X X X X X X X X).1             . B V C C H H F y %             : !. X X X X X X X X X X X X X X X X X X X",
" X X X X X X X X X X X X X X X X X X X).1               r C C V V B C 7               : !. X X X X X X X X X X X X X X X X X X X",
" X X X X X X X X X X X X X X X X X X X].1               8 Z L Z L L H 5               : (. X X X X X X X X X X X X X X X X X X X",
" X X X X X X X X X X X X X X X X X X X'.s               5 V Z Z H L Z #               - R. X X X X X X X X X X X X X X X X X X X",
" X X X X X X X X X X X X X X X X X X X[.g               # N N N Z A N #               : R. X X X X X X X X X X X X X X X X X X X",
" X X X X X X X X X X X X X X X X X X X'.g               + V A N Z Z V .               1 R. X X X X X X X X X X X X X X X X X X X",
" X X X X X X X X X X X X X X X X X X X].1                 4 0 9 9 8 7                 $ E. X X X X X X X X X X X X X X X X X X X",
" X X X X X X X X X X X X X X X X X X X XO.o : : : 1 1 1 1 h W ~ ~ W j 1 < < < : : : 1 c W. X X X X X X X X X X X X X X X X X X X",
" X X X X X X X X X X X X X X X X X X X X'.R.R.R.).].].].'.[.[..X}..X[.'.].].).Q.R.R.'.[. X X X X X X X X X X X X X X X X X X X X",
" X X X X X X X X X X X X X X X X X X X X X X X X X X X X X X X X X X X X X X X X X X X X X X X X X X X X X X X X X X X X X X X X",
" X X X X X X X X X X X X X X X X X X X X X X X X X X X X X X X X X X X X X X X X X X X X X X X X X X X X X X X X X X X X X X X X",
" X X X X X X X X X X X X X X X X X X X X X X X X X X X X X X X X X X X X X X X X X X X X X X X X X X X X X X X X X X X X X X X X"
};
