/* XPM */
static char *f476da8b4c254e0983858c11639c308406fgBvllLTLbu6WC[] = {
/* columns rows colors chars-per-pixel */
"64 64 194 2 ",
"   c 0",
".  c #0C0202",
"X  c #0D0C0B",
"o  c #060A08",
"O  c #140403",
"+  c #1B0500",
"@  c #140906",
"#  c #110E0E",
"$  c #1C0E0A",
"%  c #180A07",
"&  c #0C120E",
"*  c #1A130D",
"=  c #0F0F11",
"-  c #140F11",
";  c #0E1213",
":  c #0A151B",
">  c #141314",
",  c #1A1313",
"<  c #1A1815",
"1  c #17161A",
"2  c #1B1B1B",
"3  c #181618",
"4  c #250500",
"5  c #230A04",
"6  c #210E09",
"7  c #340E06",
"8  c #24120B",
"9  c #35150B",
"0  c #3D170B",
"q  c #3C1609",
"w  c #221B1C",
"e  c #281812",
"r  c #361B14",
"t  c #1F201E",
"y  c #392419",
"u  c #211E21",
"i  c #1F2125",
"p  c #242424",
"a  c #292524",
"s  c #2B2B2C",
"d  c #292927",
"f  c #312D2C",
"g  c #392728",
"h  c #33322F",
"j  c #2F2F30",
"k  c #343332",
"l  c #3A3A37",
"z  c #440D07",
"x  c #481202",
"c  c #5B1801",
"v  c #631B00",
"b  c #512105",
"n  c #4C2516",
"m  c #4A2619",
"M  c #4D2A1D",
"N  c #462618",
"B  c #532B1C",
"V  c #512817",
"C  c #6D2300",
"Z  c #6C2803",
"A  c #752501",
"S  c #4F2F21",
"D  c #472B22",
"F  c #522E21",
"G  c #4F3125",
"H  c #42382E",
"J  c #553224",
"K  c #553629",
"L  c #5A3729",
"P  c #5B3A2C",
"I  c #563A2B",
"U  c #4A3734",
"Y  c #4D3934",
"T  c #443E3B",
"R  c #473937",
"E  c #5C3434",
"W  c #533C3A",
"Q  c #5B3D3B",
"!  c #5F3E31",
"~  c #613E3D",
"^  c #623F37",
"/  c #54423C",
"(  c #5B423C",
")  c #63453D",
"_  c #66493F",
"`  c #634235",
"'  c #744238",
"]  c #613D41",
"[  c #394043",
"{  c #4A4846",
"}  c #5C4444",
"|  c #5C4846",
" . c #5F4C4B",
".. c #564846",
"X. c #565757",
"o. c #644542",
"O. c #644944",
"+. c #6B4C44",
"@. c #624449",
"#. c #654C4B",
"$. c #6B4E4A",
"%. c #68464C",
"&. c #6B514C",
"*. c #64554B",
"=. c #71514C",
"-. c #705047",
";. c #665152",
":. c #6D6C6C",
">. c #746C6E",
",. c #72706F",
"<. c #766D70",
"1. c #767273",
"2. c #797575",
"3. c #7A7678",
"4. c #7E797A",
"5. c #7A7977",
"6. c #940700",
"7. c #AC1F00",
"8. c #852C01",
"9. c #992F00",
"0. c #8E3402",
"q. c #933501",
"w. c #993802",
"e. c #A72801",
"r. c #A73701",
"t. c #994406",
"y. c #AA4906",
"u. c #B54302",
"i. c #AA550E",
"p. c #A6550F",
"a. c #A65E15",
"s. c #A95B14",
"d. c #A96215",
"f. c #A86118",
"g. c #95583D",
"h. c #CF4B02",
"j. c #D75900",
"k. c #FA4000",
"l. c #E15F01",
"z. c #D76102",
"x. c #E36301",
"c. c #ED6201",
"v. c #F46600",
"b. c #F16900",
"n. c #FD6E01",
"m. c #FD7301",
"M. c #FF7C00",
"N. c #B57844",
"B. c #827C7C",
"V. c #C35840",
"C. c #FE8400",
"Z. c #FE8C00",
"A. c #FF9300",
"S. c #FF9B00",
"D. c #FFA300",
"F. c #FFAC00",
"G. c #FFB400",
"H. c #FFB900",
"J. c #F18D2A",
"K. c #F89825",
"L. c #F69236",
"P. c #7F7F80",
"I. c #878584",
"U. c #A7A8A7",
"Y. c #D4D6D9",
"T. c #D9DADB",
"R. c #FCF5D9",
"E. c #F9F6D9",
"W. c #DBDDE1",
"Q. c #E4E4E6",
"!. c #E8E7E7",
"~. c #E6E9E6",
"^. c #EAE9E5",
"/. c #E7E7E8",
"(. c #E7E8E9",
"). c #EBECED",
"_. c #F0EEEE",
"`. c #F3F4EC",
"'. c #FDF6E5",
"]. c #EDEEF0",
"[. c #EFF0F1",
"{. c #EDF0F2",
"}. c #F2F2F2",
"|. c #F1F2F5",
" X c #F4F5F5",
".X c #F5F6F6",
"XX c #F4F4F3",
"oX c #F7F8F8",
"OX c 0",
"+X c white",
"@X c 0",
"#X c 0",
"$X c 0",
"%X c #F9FAF6",
/* pixels */
"@X@X@X@X@X@X@X@X@X@X@X@X@X@X@X@X@X@X@X@X@X@X@X@X@X@X@X@X@X@X@X@X@X@X@X@X@X@X@X@X@X@X@X@X@X@X@X@X@X@X@X@X@X@X@X@X@X@X@X@X@X@X@X@X",
"@X@X@X@X@X@X@X@X@X@X@X@X@X@X@X@X@X@X@X@X@X@X@X@X@X@X@X@X@X@X@X@X@X@X@X@X@X@X@X@X@X@X@X@X@X@X@X@X@X@X@X@X@X@X@X@X@X@X@X@X@X@X@X@X",
"@X@X@X@X@X@X@X@X@X@X@X@X@X@X@X@X@X@X@X@X@X@X@X@X@X@X@X@X@X@X@X@X@X@X@X@X@X@X@X@X@X@X@X@X@X@X@X@X@X@X@X@X@X@X@X@X@X@X@X@X@X@X@X@X",
"@X@X@X@X@X@X@X@X@X@X@X@X@X@X@X@X@X@X@X@X@X@X@X@X@X@X@X@X@X@X@X@X@X@X@X@X@X@X@X@X@X@X@X@X@X@X@X@X@X@X@X@X@X@X@X@X@X@X@X@X@X@X@X@X",
"@X@X@X@X@X@X@X@X@X@X@X@X@X@X@X@X@X@X@X@X@X@X@X@X@X@X@X@X@X@X@X@X@X@X@X@X@X@X@X@X@X@X@X@X@X@X@X@X@X@X@X@X@X@X@X@X@X@X@X@X@X@X@X@X",
"@X@X@X@X@X@X@X@X@X@X@X@X@X@X@X@X@X@X@X@X@X@X@X@X@X@X@X@X@X@X@X@X@X@X@X@X@X@X@X@X@X@X@X@X@X@X@X@X@X@X@X@X@X@X@X@X@X@X@X@X@X@X@X@X",
"@X@X@X@X@X@X@X@X@X@X@X@X@X@X@X@X@X@X@X@X@X@X@X@X@X@X@X@X@X@X@X@X@X@X@X@X@X@X@X@X@X@X@X@X@X@X@X@X@X@X@X@X@X@X@X@X@X@X@X@X@X@X@X@X",
"@X@X@X@X@X@X@X@X@X@X@X@X@X@X@X@X@X@X@X@X@X@X@X@X@X@X@X@X@X@X@X@X@X@X@X@X@X@X@X@X@X@X@X@X@X@X@X@X@X@X@X@X@X@X@X@X@X@X@X@X@X@X@X@X",
"@X@X@X@X@X@X@X@X@X@X@X@X@X@X@X@X@X@X@X@X@X@X@X@X@X@X@X@X@X@X@X@X@X@X@X@X@X@X@X@X@X@X@X@X@X@X@X@X@X@X@X@X@X@X@X@X@X@X@X@X@X@X@X@X",
"@X@X@X@X@X@X@X@X@X@X@X@X@X@X@X@X@X@X@X@X@X@X@X@X@X@X@X@X@X@X@X@X@X@X@X@X@X@X@X@X@X@X@X@X@X@X@X@X@X@X@X@X@X@X@X@X@X@X@X@X@X@X@X@X",
"@X@X@X@X@X@X@X@X@X@X@X@X@X@X@X@X@X@X@X@X@X@X@X@X@X@X@X@X@X@X@X@X@X@X@X@X@X@X@X@X@X@X@X@X@X@X@X@X@X@X@X@X@X@X@X@X@X@X@X@X@X@X@X@X",
"@X@X@X@X@X@X@X@X@X@X@X@X@X@X@X@X@X@X@X@X@X                      . 6.k.7..             @X@X@X@X@X@X@X@X@X@X@X@X@X@X@X@X@X@X@X@X@X",
"@X@X@X@X@X@X@X@X@X@X@X@X@X@X@X@X@X@X@X@X@X                    O r.n.M.c.x             @X@X@X@X@X@X@X@X@X@X@X@X@X@X@X@X@X@X@X@X@X",
"@X@X@X@X@X@X@X@X@X@X@X@X@X@X@X@X@X@X@X@X@X                  . r.M.Z.C.C.r..           @X@X@X@X@X@X@X@X@X@X@X@X@X@X@X@X@X@X@X@X@X",
"@X@X@X@X@X@X@X@X@X@X@X@X@X@X@X@X@X@X@X@X@X                . q.M.Z.A.Z.Z.n.c           @X@X@X@X@X@X@X@X@X@X@X@X@X@X@X@X@X@X@X@X@X",
"@X@X@X@X@X@X@X@X@X@X@X@X@X@X@X@X@X@X@X@X@X                A m.C.S.S.A.Z.C.9.          @X@X@X@X@X@X@X@X@X@X@X@X@X@X@X@X@X@X@X@X@X",
"@X@X@X@X@X@X@X@X@X@X@X@X@X@X@X@X@X@X@X@X@X              7 b.C.A.A.S.A.A.Z.j..         @X@X@X@X@X@X@X@X@X@X@X@X@X@X@X@X@X@X@X@X@X",
"@X@X@X@X@X@X@X@X@X@X@X@X@X@X@X@X@X@X@X@X@X              w.C.A.A.A.S.S.A.Z.M.v         @X@X@X@X@X@X@X@X@X@X@X@X@X@X@X@X@X@X@X@X@X",
"@X@X@X@X@X@X@X@X@X@X@X@X@X@X@X@X@X@X@X@X@X            7 x.C.Z.A.A.A.A.A.Z.Z.b.C       @X@X@X@X@X@X@X@X@X@X@X@X@X@X@X@X@X@X@X@X@X",
"@X@X@X@X@X@X@X@X@X@X@X@X@X@X@X@X@X@X@X@X@X            q.C.Z.A.A.S.S.S.S.Z.C.C.M.C     @X@X@X@X@X@X@X@X@X@X@X@X@X@X@X@X@X@X@X@X@X",
"@X@X@X@X@X@X@X@X@X@X@X@X@X@X@X@X@X@X@X@X@X          7 c.Z.A.A.S.S.S.S.S.A.A.Z.Z.m.A   @X@X@X@X@X@X@X@X@X@X@X@X@X@X@X@X@X@X@X@X@X",
"@X@X@X@X@X@X@X@X@X@X@X@X@X@X@X@X@X@X@X@X@X          0.M.Z.A.A.S.D.D.D.D.S.A.A.Z.M.m.C @X@X@X@X@X@X@X@X@X@X@X@X@X@X@X@X@X@X@X@X@X",
"@X@X@X@X@X@X@X@X@X@X@X@X@X@X@X@X@X@X@X@X@X        5 j.C.Z.A.S.D.G.F.F.D.S.Z.A.A.Z.Z.b.@X@X@X@X@X@X@X@X@X@X@X@X@X@X@X@X@X@X@X@X@X",
"@X@X@X@X@X@X@X@X@X@X@X@X@X@X@X@X@X@X@X@X@X        8.M.Z.A.S.D.F.G.G.G.F.S.S.A.Z.Z.A.M.@X@X@X@X@X@X@X@X@X@X@X@X@X@X@X@X@X@X@X@X@X",
"@X@X@X@X@X@X@X@X@X@X@X@X@X@X@X@X@X@X@X@X@X      c c.C.A.S.D.F.G.G.H.G.F.D.S.A.Z.Z.Z.M.@X@X@X@X@X@X@X@X@X@X@X@X@X@X@X@X@X@X@X@X@X",
"@X@X@X@X@X@X@X@X@X@X@X@X@X@X@X@X@X@X@X@X@X  . A v.C.Z.S.S.F.G.G.G.G.G.G.F.D.A.Z.Z.C.C.@X@X@X@X@X@X@X@X@X@X@X@X@X@X@X@X@X@X@X@X@X",
"@X@X@X@X@X@X@X@X@X@X@X@X@X@X@X@X@X@X@X@X@X  Z n.M.Z.A.S.D.F.G.H.G.G.G.G.F.D.A.A.Z.C.C.@X@X#X@X@X@X@X@X@X@X@X@X@X@X@X@X@X@X@X@X@X",
"@X@X@X@X@X@X@X@X@X@X@X@X@X@X@X@X@X@X@X@X@X. u.m.C.A.Z.A.D.F.G.H.H.G.G.G.F.D.A.A.Z.C.M.@X@X#X@X@X@X@X@X@X@X@X@X@X@X@X@X@X@X@X@X@X",
"@X@X@X@X@X@X@X@X@X@X@X@X@X@X@X@X@X@X@X@X@X+ z.M.Z.S.A.A.F.G.G.G.H.G.G.G.F.D.A.A.Z.C.C.@X@X@X@X@X@X@X@X@X@X@X@X@X@X@X@X@X@X@X@X@X",
"@X@X@X@X@X@X@X@X@X@X@X@X@X@X@X@X@X@X@X@X@X4 x.Z.A.A.S.S.F.G.G.G.G.G.G.G.F.D.S.A.Z.C.M.@X@X@X@X@X@X@X@X@X@X@X@X@X@X@X@X@X@X@X@X@X",
"@X@X@X@X@X@X@X@X@X@X@X@X@X@X@X@X@X@X@X@X@X4 l.C.Z.A.A.S.D.F.F.G.G.F.F.F.D.D.S.Z.C.m.e.@X@X@X@X@X@X@X@X@X@X@X@X@X@X@X@X@X@X@X@X@X",
"@X@X@X@X@X@X@X@X@X@X@X@X@X@X@X@X@X@X@X@X@X+ j.C.Z.A.A.S.S.D.F.F.F.F.F.D.D.S.A.Z.C.h.O @X@X@X@X@X@X@X@X@X@X@X@X@X@X@X@X@X@X@X@X@X",
"@X@X@X@X@X@X@X@X@X@X@X@X@X@X@X@X@X@X@X@X@X  b t.i.p.s.a.a.a.f.f.f.d.d.a.s.i.i.y.8.z . @X@X@X@X@X@X@X@X@X@X@X@X@X@X@X@X@X@X@X@X@X",
"@X@X@X@X@X@X@X@X@X@X@X@X@X@X@X@X@X@X@X@X@X    g E E ~ o.o.o.@.@.@.@.%.@.@.] ~ Q I *   @X@X@X@X@X@X@X@X@X@X@X@X@X@X@X@X@X@X@X@X@X",
"@X@X@X@X@X@X@X@X@X@X@X@X@X@X@X@X@X@X@X@X@X  # ;.O.+.-.=.$.=.&.&.&.&.=.$.$.$.&. .*.y   @X@X@X@X@X@X@X@X@X@X@X@X@X@X@X@X@X@X@X@X@X",
"@X@X@X@X@X@X@X@X@X@X@X@X@X@X@X@X@X@X@X@X@X  o w R &.$.$.#.$.#.&.&.#.$.#.#.$.#.R a o   @X@X@X@X@X@X@X@X@X@X@X@X@X@X@X@X@X@X@X@X@X",
"@X@X@X@X@X@X@X@X@X@X@X@X@X@X@X@X@X@X@X@X@X      w @.o.o.o.O.O.O.O.o.O.O.O.O.} ,       @X@X@X@X@X@X@X@X@X@X@X@X@X@X@X@X@X@X@X@X@X",
"@X@X@X@X@X@X@X@X@X@X@X@X@X@X@X@X@X@X@X@X@X      , } o.o.o.o.o.o.O.o.O.o.o.O.W #       @X@X@X@X@X@X@X@X@X@X@X@X@X@X@X@X@X@X@X@X@X",
"@X@X@X@X@X@X@X@X@X@X@X@X@X@X@X@X@X@X@X@X@X      , Q o.o._ _ ) o.o.) +.o.o.) W #       @X@X@X@X@X@X@X@X@X@X@X@X@X@X@X@X@X@X@X@X@X",
"@X@X@X@X@X@X@X@X@X@X@X@X@X@X@X@X@X@X@X@X@X      , W ) _ _ ) ) o.) ) o.) ) ( Y @       @X@X@X@X@X@X@X@X@X@X@X@X@X@X@X@X@X@X@X@X@X",
"@X@X@X@X@X@X@X@X@X@X@X@X@X@X@X@X@X@X@X@X@X      * Q _ _ o.) _ o.) ) o.) ) ) Y X       @X@X@X@X@X@X@X@X@X@X@X@X@X@X@X@X@X@X@X@X@X",
"@X@X@X@X@X@X@X@X@X@X@X@X@X@X@X@X@X@X@X@X@X      $ ) ) ) _ o.o._ _ ) _ _ ) Q ( *       @X@X@X@X@X@X@X@X@X@X@X@X@X@X@X@X@X@X@X@X@X",
"@X@X@X@X@X@X@X@X@X@X@X@X@X@X@X@X@X@X@X@X@Xs s k T ..| O.O.O.O.O.O.#.#. . .| ..T k s s @X@X@X@X@X@X@X@X@X@X@X@X@X@X@X@X@X@X@X@X@X",
"@X@X@X@X@X@X@X@X@X@X@X@X@X@X@X@X@X@X@X@X@XI.1.2.3.3.1.1.<.<.>.>.>.>.>.1.1.1.:.:.:.2.:.@X@X@X@X@X@X@X@X@X@X@X@X@X@X@X@X@X@X@X@X@X",
"@X@X@X@X@X@X@X@X@X@X@X@X@X@X@X@X@X@X@X@X@X5.5.4.4.4.B.B.B.B.B.B.4.4.3.2.2.4.3.2.1.1.,.@X@X@X@X@X@X@X@X@X@X@X@X@X@X@X@X@X@X@X@X@X",
"@X@X@X@X@X@X@X@X@X@X@X@X@X@X@X@X@X@X@X@X@X1 p p f l R / ( ( ( ( ( ( / W / T h f k k k @X@X@X@X@X@X@X@X@X@X@X@X@X@X@X@X@X@X@X@X@X",
"@X@X@X@X@X@X@X@X@X@X@X@X@X@X@X@X@X@X@X@X@X          r P L L K K L L K G G e           @X@X@X@X@X@X@X@X@X@X@X@X@X@X@X@X@X@X@X@X@X",
"@X@X@X@X@X@X@X@X@X@X@X@X@X@X@X@X@X@X@X@X@X          r ` ! P P P P P P L P e           @X@X@X@X@X@X@X@X@X@X@X@X@X@X@X@X@X@X@X@X@X",
"@X@X@X@X@X@X@X@X@X@X@X@X@X@X@X@X@X@X@X@X@X          8 L P L P P P P L L K $           @X@X@X@X@X@X@X@X@X@X@X@X@X@X@X@X@X@X@X@X@X",
"@X@X@X@X@X@X@X@X@X@X@X@X@X@X@X@X@X@X@X@X@X          @ J L K L P L L K J S @           @X@X@X@X@X@X@X@X@X@X@X@X@X@X@X@X@X@X@X@X@X",
"@X@X@X@X@X@X@X@X@X@X@X@X@X@X@X@X@X@X@X@X@X          . L P P L L L L L L M .           @X@X@X@X@X@X@X@X@X@X@X@X@X@X@X@X@X@X@X@X@X",
"@X@X@X@X@X@X@X@X@X@X@X@X@X@X@X@X@X@X@X@X@X          . D L P P P P P L P M .           @X@X@X@X@X@X@X@X@X@X@X@X@X@X@X@X@X@X@X@X@X",
"@X@X@X@X@X@X@X@X@X@X@X@X@X@X@X@X@X@X@X@X@X            @ y N M M S S S y $             @X@X@X@X@X@X@X@X@X@X@X@X@X@X@X@X@X@X@X@X@X",
"@X@X@X@X@X@X@X@X@X@X@X@X@X@X@X@X@X@X@X@X@X            . r M M m m N M 8               @X@X@X@X@X@X@X@X@X@X@X@X@X@X@X@X@X@X@X@X@X",
"@X@X@X@X@X@X@X@X@X@X@X@X@X@X@X@X@X@X@X@X@X              9 B J F J J F 6               @X@X@X@X@X@X@X@X@X@X@X@X@X@X@X@X@X@X@X@X@X",
"@X@X@X@X@X@X@X@X@X@X@X@X@X@X@X@X@X@X@X@X@X              6 m B B B J B %               @X@X@X@X@X@X@X@X@X@X@X@X@X@X@X@X@X@X@X@X@X",
"@X@X@X@X@X@X@X@X@X@X@X@X@X@X@X@X@X@X@X@X@X              O n n n B V n @               @X@X@X@X@X@X@X@X@X@X@X@X@X@X@X@X@X@X@X@X@X",
"@X@X@X@X@X@X@X@X@X@X@X@X@X@X@X@X@X@X@X@X@X              O m V n B B M O               @X@X@X@X@X@X@X@X@X@X@X@X@X@X@X@X@X@X@X@X@X",
"@X@X@X@X@X@X@X@X@X@X@X@X@X@X@X@X@X@X@X@X@X                5 0 0 0 9 8                 @X@X@X@X@X@X@X@X@X@X@X@X@X@X@X@X@X@X@X@X@X",
"@X@X@X@X@X@X@X@X@X@X@X@X@X@X@X@X@X@X@X@X@X@X@X@X@X@X@X@X@X@X@X@X@X@X@X@X@X@X@X@X@X@X@X@X@X@X@X@X@X@X@X@X@X@X@X@X@X@X@X@X@X@X@X@X",
"@X@X@X@X@X@X@X@X@X@X@X@X@X@X@X@X@X@X@X@X@X@X@X@X@X@X@X@X@X@X@X@X@X@X@X@X@X@X@X@X@X@X@X@X@X@X@X@X@X@X@X@X@X@X@X@X@X@X@X@X@X@X@X@X",
"@X@X@X@X@X@X@X@X@X@X@X@X@X@X@X@X@X@X@X@X@X@X@X@X@X@X@X@X@X@X@X@X@X@X@X@X@X@X@X@X@X@X@X@X@X@X@X@X@X@X@X@X@X@X@X@X@X@X@X@X@X@X@X@X",
"@X@X@X@X@X@X@X@X@X@X@X@X@X@X@X@X@X@X@X@X@X@X@X@X@X@X@X@X@X@X@X@X@X@X@X@X@X@X@X@X@X@X@X@X@X@X@X@X@X@X@X@X@X@X@X@X@X@X@X@X@X@X@X@X",
"@X@X@X@X@X@X@X@X@X@X@X@X@X@X@X@X@X@X@X@X@X@X@X@X@X@X@X@X@X@X@X@X@X@X@X@X@X@X@X@X@X@X@X@X@X@X@X@X@X@X@X@X@X@X@X@X@X@X@X@X@X@X@X@X"
};
