/* XPM */
static char *b57331d796ea40fcd667383e1a41f22f9852UQ1a9Yd1RcpD[] = {
/* columns rows colors chars-per-pixel */
"64 64 192 2 ",
"   c 0",
".  c #0B0201",
"X  c #070B09",
"o  c #0C0C0B",
"O  c #0F0805",
"+  c #130402",
"@  c #1D0000",
"#  c #160A06",
"$  c #130D0D",
"%  c #1A0D0A",
"&  c #190B07",
"*  c #0B100D",
"=  c #12100F",
"-  c #1C130F",
";  c #120F11",
":  c #0E1513",
">  c #131314",
",  c #1B1414",
"<  c #161619",
"1  c #181718",
"2  c #1B1B1B",
"3  c #181A17",
"4  c #230100",
"5  c #2A0000",
"6  c #230C07",
"7  c #340800",
"8  c #3F0E00",
"9  c #23110B",
"0  c #34140B",
"q  c #3C160B",
"w  c #3E1A0E",
"e  c #2F1A15",
"r  c #241C1C",
"t  c #261812",
"y  c #391B11",
"u  c #2A231B",
"i  c #3D241B",
"p  c #1D1C20",
"a  c #232323",
"s  c #262827",
"d  c #272628",
"f  c #2C2B2A",
"g  c #2B2624",
"h  c #312D2C",
"j  c #382C27",
"k  c #34312B",
"l  c #353433",
"z  c #3C3937",
"x  c #4D1400",
"c  c #461403",
"v  c #501D04",
"b  c #611C01",
"n  c #4C2516",
"m  c #432419",
"M  c #4A2619",
"N  c #4D2B1D",
"B  c #512817",
"V  c #532C1C",
"C  c #502719",
"Z  c #57301F",
"A  c #6D2304",
"S  c #7A2700",
"D  c #4D2E21",
"F  c #422B28",
"G  c #542F21",
"H  c #552D2F",
"J  c #543225",
"K  c #54362A",
"L  c #5A3729",
"P  c #5B392C",
"I  c #59382A",
"U  c #473635",
"Y  c #493734",
"T  c #413C3A",
"R  c #4E3D39",
"E  c #493A37",
"W  c #5B363A",
"Q  c #523D3A",
"!  c #5B3D3C",
"~  c #593A35",
"^  c #603C2E",
"/  c #603B3C",
"(  c #4A433E",
")  c #56433C",
"_  c #5B423D",
"`  c #63453D",
"'  c #65453B",
"]  c #623F44",
"[  c #474847",
"{  c #5B4443",
"}  c #5C4845",
"|  c #5A4A48",
" . c #535353",
".. c #644543",
"X. c #644944",
"o. c #6A4A43",
"O. c #644549",
"+. c #644D4B",
"@. c #6A4D4A",
"#. c #684249",
"$. c #6D504C",
"%. c #625148",
"&. c #705147",
"*. c #72514C",
"=. c #6F6D6E",
"-. c #756D6E",
";. c #776D71",
":. c #757273",
">. c #797577",
",. c #7A7779",
"<. c #7D7A7B",
"1. c #7B7977",
"2. c #A61B00",
"3. c #802600",
"4. c #8B2C00",
"5. c #882A01",
"6. c #8A3100",
"7. c #983400",
"8. c #A43C02",
"9. c #A73401",
"0. c #B53B01",
"q. c #CE1700",
"w. c #994004",
"e. c #A54E0B",
"r. c #B64902",
"t. c #BA5709",
"y. c #A75D12",
"u. c #A95F12",
"i. c #A55510",
"p. c #AC6213",
"a. c #B46112",
"s. c #834028",
"d. c #8C4636",
"f. c #C85601",
"g. c #D35401",
"h. c #DB5701",
"j. c #FE4C00",
"k. c #E35401",
"l. c #E25A01",
"z. c #DC6301",
"x. c #DF6C02",
"c. c #E56000",
"v. c #EF6201",
"b. c #F46500",
"n. c #FE6700",
"m. c #FF6902",
"M. c #FE7400",
"N. c #FE7B00",
"B. c #C55435",
"V. c #827D7E",
"C. c #FE8400",
"Z. c #FE8C00",
"A. c #FE9400",
"S. c #FF9B00",
"D. c #FFA300",
"F. c #FFAB00",
"G. c #FFB200",
"H. c #84807F",
"J. c #898887",
"K. c #838383",
"L. c #97908D",
"P. c #A9A9A8",
"I. c #D9DADD",
"U. c #D5D7DA",
"Y. c #DCDEE1",
"T. c #DFE3E4",
"R. c #E2E4E6",
"E. c #E8E8E5",
"W. c #E6E7E9",
"Q. c #E8E7E8",
"!. c #E6E9EA",
"~. c #EBECEC",
"^. c #F0EEED",
"/. c #F1F2EE",
"(. c #EEEFF1",
"). c #ECEDF0",
"_. c #EFF1F4",
"`. c #F1F1F2",
"'. c #F2F3F5",
"]. c #F3F4F6",
"[. c #F5F6F6",
"{. c #F4F4F4",
"}. c #FAFAF6",
"|. c #F6F6F8",
" X c #F9F7F8",
".X c #F7F8F8",
"XX c #F9FAF9",
"oX c #FEFEFE",
"OX c white",
"+X c 0",
"@X c #FDFFFE",
"#X c #FFFFFF",
/* pixels */
"+X+X+X+X+X+X+X+X+X+X+X+X+X+X+X+X+X+X+X+X+X+X+X+X+X+X+X+X+X+X+X+X+X+X+X+X+X+X+X+X+X+X+X+X+X+X+X+X+X+X+X+X+X+X+X+X+X+X+X+X+X+X+X+X",
"+X+X+X+X+X+X+X+X+X+X+X+X+X+X+X+X+X+X+X+X+X+X+X+X+X+X+X+X+X+X+X+X+X+X+X+X+X+X+X+X+X+X+X+X+X+X+X+X+X+X+X+X+X+X+X+X+X+X+X+X+X+X+X+X",
"+X+X+X+X+X+X+X+X+X+X+X+X+X+X+X+X+X+X+X+X+X+X+X+X+X+X+X+X+X+X+X+X+X+X+X+X+X+X+X+X+X+X+X+X+X+X+X+X+X+X+X+X+X+X+X+X+X+X+X+X+X+X+X+X",
"+X+X+X+X+X+X+X+X+X+X+X+X+X+X+X+X+X+X+X+X+X+X+X+X+X+X+X+X+X+X+X+X+X+X+X+X+X+X+X+X+X+X+X+X+X+X+X+X+X+X+X+X+X+X+X+X+X+X+X+X+X+X+X+X",
"+X+X+X+X+X+X+X+X+X+X+X+X+X+X+X+X+X+X+X+X+X+X+X+X+X+X+X+X+X+X+X+X+X+X+X+X+X+X+X+X+X+X+X+X+X+X+X+X+X+X+X+X+X+X+X+X+X+X+X+X+X+X+X+X",
"+X+X+X+X+X+X+X+X+X+X+X+X+X+X+X+X+X+X+X+X+X+X+X+X+X+X+X+X+X+X+X+X+X+X+X+X+X+X+X+X+X+X+X+X+X+X+X+X+X+X+X+X+X+X+X+X+X+X+X+X+X+X+X+X",
"+X+X+X+X+X+X+X+X+X+X+X+X+X+X+X+X+X+X+X+X+X+X+X+X+X+X+X+X+X+X+X+X+X+X+X+X+X+X+X+X+X+X+X+X+X+X+X+X+X+X+X+X+X+X+X+X+X+X+X+X+X+X+X+X",
"+X+X+X+X+X+X+X+X+X+X+X+X+X+X+X+X+X+X+X+X+X+X+X+X+X+X+X+X+X+X+X+X+X+X+X+X+X+X+X+X+X+X+X+X+X+X+X+X+X+X+X+X+X+X+X+X+X+X+X+X+X+X+X+X",
"+X+X+X+X+X+X+X+X+X+X+X+X+X+X+X+X+X+X+X+X+X+X+X+X+X+X+X+X+X+X+X+X+X+X+X+X+X+X+X+X+X+X+X+X+X+X+X+X+X+X+X+X+X+X+X+X+X+X+X+X+X+X+X+X",
"+X+X+X+X+X+X+X+X+X+X+X+X+X+X+X+X+X+X+X+X+X+X+X+X+X+X+X+X+X+X+X+X+X+X+X+X+X+X+X+X+X+X+X+X+X+X+X+X+X+X+X+X+X+X+X+X+X+X+X+X+X+X+X+X",
"+X+X+X+X+X+X+X+X+X+X+X+X+X+X+X+X+X+X+X+X+X+X+X+X+X+X+X+X+X+X+X+X+X+X+X+X+X+X+X+X+X+X+X+X+X+X+X+X+X+X+X+X+X+X+X+X+X+X+X+X+X+X+X+X",
"+X+X+X+X+X+X+X+X+X+X+X+X+X+X+X+X+X+X+X+X+X+X+X+X+X+X+X+X+X+X+X+X+X+X+X+X+X+X+X+X+X+X+X+X+X+X+X+X+X+X+X+X+X+X+X+X+X+X+X+X+X+X+X+X",
"+X+X+X+X+X+X+X+X+X+X+X+X+X+X+X+X+X+X+X+X+X+X+X+X+X+X+X+X+X+X+X+X+X+X+X+X+X+X+X+X+X+X+X+X+X+X+X+X+X+X+X+X+X+X+X+X+X+X+X+X+X+X+X+X",
"+X+X+X+X+X+X+X+X+X+X+X+X+X+X+X+X+X+X+X+X+X              5 q.j.2.                      +X+X+X+X+X+X+X+X+X+X+X+X+X+X+X+X+X+X+X+X+X",
"+X+X+X+X+X+X+X+X+X+X+X+X+X+X+X+X+X+X+X+X+X              5.m.N.k.4                     +X+X+X+X+X+X+X+X+X+X+X+X+X+X+X+X+X+X+X+X+X",
"+X+X+X+X+X+X+X+X+X+X+X+X+X+X+X+X+X+X+X+X+X            . 0.M.N.M.4.                    +X+X+X+X+X+X+X+X+X+X+X+X+X+X+X+X+X+X+X+X+X",
"+X+X+X+X+X+X+X+X+X+X+X+X+X+X+X+X+X+X+X+X+X            7 l.C.C.C.M.8.                  +X+X+X+X+X+X+X+X+X+X+X+X+X+X+X+X+X+X+X+X+X",
"+X+X+X+X+X+X+X+X+X+X+X+X+X+X+X+X+X+X+X+X+X            4.N.Z.Z.Z.C.N.3.                +X+X+X+X+X+X+X+X+X+X+X+X+X+X+X+X+X+X+X+X+X",
"+X+X+X+X+X+X+X+X+X+X+X+X+X+X+X+X+X+X+X+X+X          b b.C.A.A.A.A.Z.M.6.              +X+X+X+X+X+X+X+X+X+X+X+X+X+X+X+X+X+X+X+X+X",
"+X+X+X+X+X+X+X+X+X+X+X+X+X+X+X+X+X+X+X+X+X        b b.C.A.S.A.A.A.Z.N.N.5.            +X+X+X+X+X+X+X+X+X+X+X+X+X+X+X+X+X+X+X+X+X",
"+X+X+X+X+X+X+X+X+X+X+X+X+X+X+X+X+X+X+X+X+X      c v.C.Z.A.S.A.A.S.S.A.Z.M.x           +X+X+X+X+X+X+X+X+X+X+X+X+X+X+X+X+X+X+X+X+X",
"+X+X+X+X+X+X+X+X+X+X+X+X+X+X+X+X+X+X+X+X+X    . 9.M.Z.A.Z.S.D.D.S.S.A.A.Z.7.          +X+X+X+X+X+X+X+X+X+X+X+X+X+X+X+X+X+X+X+X+X",
"+X+X+X+X+X+X+X+X+X+X+X+X+X+X+X+X+X+X+X+X+X    8 k.C.Z.Z.Z.S.D.D.S.A.S.S.A.g..         +X+X+X+X+X+X+X+X+X+X+X+X+X+X+X+X+X+X+X+X+X",
"+X+X+X+X+X+X+X+X+X+X+X+X+X+X+X+X+X+X+X+X+X  . 9.M.C.A.A.A.S.D.D.D.S.S.A.Z.N.x         +X+X+X+X+X+X+X+X+X+X+X+X+X+X+X+X+X+X+X+X+X",
"+X+X+X+X+X+X+X+X+X+X+X+X+X+X+X+X+X+X+X+X+X  A n.N.Z.A.S.S.D.F.F.F.D.S.A.A.C.c.S       +X+X+X+X+X+X+X+X+X+X+X+X+X+X+X+X+X+X+X+X+X",
"+X+X+X+X+X+X+X+X+X+X+X+X+X+X+X+X+X+X+X+X+X  0.M.C.A.A.A.S.D.F.G.G.F.D.D.A.Z.C.C.7..   +X+X+X+X+X+X+X+X+X+X+X+X+X+X+X+X+X+X+X+X+X",
"+X+X+X+X+X+X+X+X+X+X+X+X+X+X+X+X+X+X+X+X+X+ f.N.C.A.A.S.F.F.F.G.G.F.F.D.S.S.A.Z.N.4.  +X+X+X+X+X+X+X+X+X+X+X+X+X+X+X+X+X+X+X+X+X",
"+X+X+X+X+X+X+X+X+X+X+X+X+X+X+X+X+X+X+X+X+X@ h.C.Z.A.S.D.F.G.G.G.G.F.F.F.D.S.A.A.C.g.. +X+X+X+X+X+X+X+X+X+X+X+X+X+X+X+X+X+X+X+X+X",
"+X+X+X+X+X+X+X+X+X+X+X+X+X+X+X+X+X+X+X+X+X@ l.C.A.S.D.D.F.G.G.G.G.G.G.F.D.S.A.A.C.z.4 +X+X+X+X+X+X+X+X+X+X+X+X+X+X+X+X+X+X+X+X+X",
"+X+X+X+X+X+X+X+X+X+X+X+X+X+X+X+X+X+X+X+X+X4 l.Z.A.S.D.F.F.G.G.G.G.G.G.F.D.D.S.Z.Z.x.4 +X+X+X+X+X+X+X+X+X+X+X+X+X+X+X+X+X+X+X+X+X",
"+X+X+X+X+X+X+X+X+X+X+X+X+X+X+X+X+X+X+X+X+X@ h.Z.A.S.D.D.F.F.G.G.G.F.F.F.D.D.A.Z.C.z.4 +X+X+X+X+X+X+X+X+X+X+X+X+X+X+X+X+X+X+X+X+X",
"+X+X+X+X+X+X+X+X+X+X+X+X+X+X+X+X+X+X+X+X+X+ f.Z.A.S.D.D.F.F.F.G.G.G.F.D.D.D.S.A.A.z.@ +X+X+X+X+X+X+X+X+X+X+X+X+X+X+X+X+X+X+X+X+X",
"+X+X+X+X+X+X+X+X+X+X+X+X+X+X+X+X+X+X+X+X+X  v w.e.i.y.u.u.u.p.p.p.p.p.a.a.t.t.r.8.A . +X+X+X+X+X+X+X+X+X+X+X+X+X+X+X+X+X+X+X+X+X",
"+X+X+X+X+X+X+X+X+X+X+X+X+X+X+X+X+X+X+X+X+X    F H W / ..] ] O.O.O...#.O.] / W W F X   +X+X+X+X+X+X+X+X+X+X+X+X+X+X+X+X+X+X+X+X+X",
"+X+X+X+X+X+X+X+X+X+X+X+X+X+X+X+X+X+X+X+X+X  = +.X.@.&.*.@.*.@.$.$.$.$.@.@.@.@.} %.u   +X+X+X+X+X+X+X+X+X+X+X+X+X+X+X+X+X+X+X+X+X",
"+X+X+X+X+X+X+X+X+X+X+X+X+X+X+X+X+X+X+X+X+X  X r U $.@.@.+.@.+.@.@.@.@.@.@.@.+.U g o   +X+X+X+X+X+X+X+X+X+X+X+X+X+X+X+X+X+X+X+X+X",
"+X+X+X+X+X+X+X+X+X+X+X+X+X+X+X+X+X+X+X+X+X      r O.........X.X.X.X.........} ,       +X+X+X+X+X+X+X+X+X+X+X+X+X+X+X+X+X+X+X+X+X",
"+X+X+X+X+X+X+X+X+X+X+X+X+X+X+X+X+X+X+X+X+X      , { ....X.X.X.X.X.X.X.X.X...{ $       +X+X+X+X+X+X+X+X+X+X+X+X+X+X+X+X+X+X+X+X+X",
"+X+X+X+X+X+X+X+X+X+X+X+X+X+X+X+X+X+X+X+X+X      , ! ` ....X.` X.X.` o.o.` _ Q ;       +X+X+X+X+X+X+X+X+X+X+X+X+X+X+X+X+X+X+X+X+X",
"+X+X+X+X+X+X+X+X+X+X+X+X+X+X+X+X+X+X+X+X+X      , ! ` ` ` ` ` ` ' ` o.' ` _ R $       +X+X+X+X+X+X+X+X+X+X+X+X+X+X+X+X+X+X+X+X+X",
"+X+X+X+X+X+X+X+X+X+X+X+X+X+X+X+X+X+X+X+X+X      , ! ` ..X.` ` X.` ` X.` ` ` Q $       +X+X+X+X+X+X+X+X+X+X+X+X+X+X+X+X+X+X+X+X+X",
"+X+X+X+X+X+X+X+X+X+X+X+X+X+X+X+X+X+X+X+X+X      9 ` ` ` ` X.X.X.` X.` ` ` ! _ -       +X+X+X+X+X+X+X+X+X+X+X+X+X+X+X+X+X+X+X+X+X",
"+X+X+X+X+X+X+X+X+X+X+X+X+X+X+X+X+X+X+X+X+Xf d l T | } X.X.X.X.X.X.+.+.+.| } | T f a d +X+X+X+X+X+X+X+X+X+X+X+X+X+X+X+X+X+X+X+X+X",
"+X+X+X+X+X+X+X+X+X+X+X+X+X+X+X+X+X+X+X+X+XK.>.>.,.,.:.:.;.-.-.-.-.-.-.:.>.:.=.=.:.1.:.+X+X+X+X+X+X+X+X+X+X+X+X+X+X+X+X+X+X+X+X+X",
"+X+X+X+X+X+X+X+X+X+X+X+X+X+X+X+X+X+X+X+X+X1.<.<.V.V.V.V.V.H.V.K.V.V.<.<.<.<.<.<.,.>.1.+X+X+X+X+X+X+X+X+X+X+X+X+X+X+X+X+X+X+X+X+X",
"+X+X+X+X+X+X+X+X+X+X+X+X+X+X+X+X+X+X+X+X+X1 a a h z R ) ) _ _ ) ) ) ) Q R T h f f f f +X+X+X+X+X+X+X+X+X+X+X+X+X+X+X+X+X+X+X+X+X",
"+X+X+X+X+X+X+X+X+X+X+X+X+X+X+X+X+X+X+X+X+X          e P J K K J K K J J J t           +X+X+X+X+X+X+X+X+X+X+X+X+X+X+X+X+X+X+X+X+X",
"+X+X+X+X+X+X+X+X+X+X+X+X+X+X+X+X+X+X+X+X+X          e ' ~ P P P P P P P I t           +X+X+X+X+X+X+X+X+X+X+X+X+X+X+X+X+X+X+X+X+X",
"+X+X+X+X+X+X+X+X+X+X+X+X+X+X+X+X+X+X+X+X+X          9 I P I P P P P K P J %           +X+X+X+X+X+X+X+X+X+X+X+X+X+X+X+X+X+X+X+X+X",
"+X+X+X+X+X+X+X+X+X+X+X+X+X+X+X+X+X+X+X+X+X          # J I L I P I I L J D #           +X+X+X+X+X+X+X+X+X+X+X+X+X+X+X+X+X+X+X+X+X",
"+X+X+X+X+X+X+X+X+X+X+X+X+X+X+X+X+X+X+X+X+X          . P ^ P I L I I I I N .           +X+X+X+X+X+X+X+X+X+X+X+X+X+X+X+X+X+X+X+X+X",
"+X+X+X+X+X+X+X+X+X+X+X+X+X+X+X+X+X+X+X+X+X            D P P P P P P I P N             +X+X+X+X+X+X+X+X+X+X+X+X+X+X+X+X+X+X+X+X+X",
"+X+X+X+X+X+X+X+X+X+X+X+X+X+X+X+X+X+X+X+X+X            O m M N N D D D i %             +X+X+X+X+X+X+X+X+X+X+X+X+X+X+X+X+X+X+X+X+X",
"+X+X+X+X+X+X+X+X+X+X+X+X+X+X+X+X+X+X+X+X+X              y N N M M m N 9               +X+X+X+X+X+X+X+X+X+X+X+X+X+X+X+X+X+X+X+X+X",
"+X+X+X+X+X+X+X+X+X+X+X+X+X+X+X+X+X+X+X+X+X              0 V J G J J G 9               +X+X+X+X+X+X+X+X+X+X+X+X+X+X+X+X+X+X+X+X+X",
"+X+X+X+X+X+X+X+X+X+X+X+X+X+X+X+X+X+X+X+X+X              6 M V V Z G V &               +X+X+X+X+X+X+X+X+X+X+X+X+X+X+X+X+X+X+X+X+X",
"+X+X+X+X+X+X+X+X+X+X+X+X+X+X+X+X+X+X+X+X+X              # n n n V B n #               +X+X+X+X+X+X+X+X+X+X+X+X+X+X+X+X+X+X+X+X+X",
"+X+X+X+X+X+X+X+X+X+X+X+X+X+X+X+X+X+X+X+X+X              + M C C V V N +               +X+X+X+X+X+X+X+X+X+X+X+X+X+X+X+X+X+X+X+X+X",
"+X+X+X+X+X+X+X+X+X+X+X+X+X+X+X+X+X+X+X+X+X                6 w q q 0 9                 +X+X+X+X+X+X+X+X+X+X+X+X+X+X+X+X+X+X+X+X+X",
"+X+X+X+X+X+X+X+X+X+X+X+X+X+X+X+X+X+X+X+X+X+X+X+X+X+X+X+X+X+X+X+X+X+X+X+X+X+X+X+X+X+X+X+X+X+X+X+X+X+X+X+X+X+X+X+X+X+X+X+X+X+X+X+X",
"+X+X+X+X+X+X+X+X+X+X+X+X+X+X+X+X+X+X+X+X+X+X+X+X+X+X+X+X+X+X+X+X+X+X+X+X+X+X+X+X+X+X+X+X+X+X+X+X+X+X+X+X+X+X+X+X+X+X+X+X+X+X+X+X",
"+X+X+X+X+X+X+X+X+X+X+X+X+X+X+X+X+X+X+X+X+X+X+X+X+X+X+X+X+X+X+X+X+X+X+X+X+X+X+X+X+X+X+X+X+X+X+X+X+X+X+X+X+X+X+X+X+X+X+X+X+X+X+X+X",
"+X+X+X+X+X+X+X+X+X+X+X+X+X+X+X+X+X+X+X+X+X+X+X+X+X+X+X+X+X+X+X+X+X+X+X+X+X+X+X+X+X+X+X+X+X+X+X+X+X+X+X+X+X+X+X+X+X+X+X+X+X+X+X+X",
"+X+X+X+X+X+X+X+X+X+X+X+X+X+X+X+X+X+X+X+X+X+X+X+X+X+X+X+X+X+X+X+X+X+X+X+X+X+X+X+X+X+X+X+X+X+X+X+X+X+X+X+X+X+X+X+X+X+X+X+X+X+X+X+X"
};
