/* XPM */
static char *e0f86f8345394b5eda339803edceadcbHBK4L2veUzFuFOfb[] = {
/* columns rows colors chars-per-pixel */
"64 64 198 2 ",
"   c #010100",
".  c #0A0201",
"X  c #0D0D0C",
"o  c #080807",
"O  c #120503",
"+  c #1B0301",
"@  c #140A05",
"#  c #120D0D",
"$  c #1A0E0B",
"%  c #190B06",
"&  c #1A120F",
"*  c #10100E",
"=  c #0D0E12",
"-  c #140F12",
";  c #1A0F10",
":  c #041017",
">  c #131314",
",  c #1A1515",
"<  c #16161A",
"1  c #191718",
"2  c #1C1C1C",
"3  c #1B1B17",
"4  c #240903",
"5  c #210E0A",
"6  c #270803",
"7  c #320C02",
"8  c #24110B",
"9  c #39160B",
"0  c #221613",
"q  c #2F1915",
"w  c #251918",
"e  c #3B1C11",
"r  c #1F201F",
"t  c #28251C",
"y  c #3E2319",
"u  c #1C1E24",
"i  c #1F2020",
"p  c #142324",
"a  c #242423",
"s  c #2A2925",
"d  c #2D2C2C",
"f  c #282728",
"g  c #322C2C",
"h  c #362927",
"j  c #353433",
"k  c #3C3331",
"l  c #3C3D3C",
"z  c #343726",
"x  c #480F06",
"c  c #551500",
"v  c #471B06",
"b  c #601D00",
"n  c #462316",
"m  c #4C2516",
"M  c #4A2619",
"N  c #47291D",
"B  c #4D2A1C",
"V  c #472519",
"C  c #522B1C",
"Z  c #622201",
"A  c #6B2200",
"S  c #692803",
"D  c #752707",
"F  c #7E3100",
"G  c #633517",
"H  c #4F2F21",
"J  c #462B23",
"K  c #542E20",
"L  c #4F3125",
"P  c #543224",
"I  c #5A3727",
"U  c #553629",
"Y  c #593729",
"T  c #563A2C",
"R  c #5B3A2C",
"E  c #5B3827",
"W  c #4A3735",
"Q  c #413A36",
"!  c #4B3A37",
"~  c #423B39",
"^  c #4E3F39",
"/  c #5C3E35",
"(  c #533D3B",
")  c #5C3C3B",
"_  c #553834",
"`  c #613F3A",
"'  c #3A403B",
"]  c #55423B",
"[  c #5B423C",
"{  c #72462E",
"}  c #64443D",
"|  c #67463C",
" . c #643E42",
".. c #4B4847",
"X. c #5B4543",
"o. c #5F4B49",
"O. c #544846",
"+. c #535354",
"@. c #644543",
"#. c #654944",
"$. c #684943",
"%. c #66464A",
"&. c #644B4B",
"*. c #694D4A",
"=. c #6C464B",
"-. c #704E4A",
";. c #6E514B",
":. c #61544D",
">. c #71524C",
",. c #715247",
"<. c #6D5251",
"1. c #6E6D6E",
"2. c #746E6F",
"3. c #766E71",
"4. c #757273",
"5. c #787475",
"6. c #7A777A",
"7. c #7C797A",
"8. c #A91D00",
"9. c #852B00",
"0. c #972D00",
"q. c #8D3301",
"w. c #933500",
"e. c #A83B01",
"r. c #B23702",
"t. c #904410",
"y. c #995414",
"u. c #B54801",
"i. c #B2550C",
"p. c #A45D15",
"a. c #B05C12",
"s. c #AD6415",
"d. c #A76217",
"f. c #B06412",
"g. c #8E513A",
"h. c #A6762C",
"j. c #C45500",
"k. c #D35C01",
"l. c #DF5D01",
"z. c #D15102",
"x. c #FC5300",
"c. c #EA6600",
"v. c #F46D00",
"b. c #F96F02",
"n. c #F57300",
"m. c #FE7101",
"M. c #FE7C00",
"N. c #F77A01",
"B. c #C27B2F",
"V. c #D96838",
"C. c #817D7D",
"Z. c #FF8400",
"A. c #FE8C00",
"S. c #FF9400",
"D. c #FF9B00",
"F. c #F99F1F",
"G. c #FFA300",
"H. c #FFAC00",
"J. c #FFB300",
"K. c #FFBB00",
"L. c #ED9623",
"P. c #FB9726",
"I. c #FFB52F",
"U. c #FFB538",
"Y. c #85807F",
"T. c #827F80",
"R. c #858282",
"E. c #888989",
"W. c #918B89",
"Q. c #AAABAA",
"!. c #DADBDE",
"~. c #F9F3D6",
"^. c #DEDFE2",
"/. c #E4E4E6",
"(. c #E5EAE6",
"). c #E9E9E5",
"_. c #E6E6E8",
"`. c #EBECED",
"'. c #F0EFEF",
"]. c #EDF5EE",
"[. c #FAFCE6",
"{. c #F1F1ED",
"}. c #F6FBEA",
"|. c #FCFEED",
" X c #EAEDF0",
".X c #EFF0F2",
"XX c #EEF1F3",
"oX c #F0F1F2",
"OX c #F1F2F4",
"+X c #F7F7F7",
"@X c #F5F5F5",
"#X c #F5F4F3",
"$X c #FEFEFE",
"%X c white",
"&X c #FFFFFE",
"*X c #FDFDFD",
"=X c #FFFFFF",
"-X c #FAFBF5",
/* pixels */
"&X&X&X&X&X&X&X&X&X&X&X&X&X&X&X&X&X&X&X&X&X&X&X&X&X&X&X&X&X&X&X&X&X&X&X&X&X&X&X&X&X&X&X&X&X&X&X&X&X&X&X&X&X&X&X&X&X&X&X&X&X&X&X&X",
"&X&X&X&X&X&X&X&X&X&X&X&X&X&X&X&X&X&X&X&X&X&X&X&X&X&X&X&X&X&X&X&X&X&X&X&X&X&X&X&X&X&X&X&X&X&X&X&X&X&X&X&X&X&X&X&X&X&X&X&X&X&X&X&X",
"&X&X&X&X&X&X&X&X&X&X&X&X&X&X&X&X&X&X&X&X&X&X&X&X&X&X&X&X&X&X&X&X&X&X&X&X&X&X&X&X&X&X&X&X&X&X&X&X&X&X&X&X&X&X&X&X&X&X&X&X&X&X&X&X",
"&X&X&X&X&X&X&X&X&X&X&X&X&X&X&X&X&X&X&X&X&X&X&X&X&X&X&X&X&X&X&X&X&X&X&X&X&X&X&X&X&X&X&X&X&X&X&X&X&X&X&X&X&X&X&X&X&X&X&X&X&X&X&X&X",
"&X&X&X&X&X&X&X&X&X&X&X&X&X&X&X&X&X&X&X&X&X&X&X&X&X&X&X&X&X&X&X&X&X&X&X&X&X&X&X&X&X&X&X&X&X&X&X&X&X&X&X&X&X&X&X&X&X&X&X&X&X&X&X&X",
"&X&X&X&X&X&X&X&X&X&X&X&X&X&X&X&X&X&X&X&X&X&X&X&X&X&X&X&X&X&X&X&X&X&X&X&X&X&X&X&X&X&X&X&X&X&X&X&X&X&X&X&X&X&X&X&X&X&X&X&X&X&X&X&X",
"&X&X&X&X&X&X&X&X&X&X&X&X&X&X&X&X&X&X&X&X&X&X&X&X&X&X&X&X&X&X&X&X&X&X&X&X&X&X&X&X&X&X&X&X&X&X&X&X&X&X&X&X&X&X&X&X&X&X&X&X&X&X&X&X",
"&X&X&X&X&X&X&X&X&X&X&X&X&X&X&X&X&X&X&X&X&X&X&X&X&X&X&X&X&X&X&X&X&X&X&X&X&X&X&X&X&X&X&X&X&X&X&X&X&X&X&X&X&X&X&X&X&X&X&X&X&X&X&X&X",
"&X&X&X&X&X&X&X&X&X&X&X&X&X&X&X&X&X&X&X&X&X&X&X&X&X&X&X&X&X&X&X&X&X&X&X&X&X&X&X&X&X&X&X&X&X&X&X&X&X&X&X&X&X&X&X&X&X&X&X&X&X&X&X&X",
"&X&X&X&X&X&X&X&X&X&X&X&X&X&X&X&X&X&X&X&X-XoXOXoX.XoXOXoX+X*X-X-X-X#X#XoXOX.XoXOX+XOX+X&X&X&X&X&X&X&X&X&X&X&X&X&X&X&X&X&X&X&X&X&X",
"&X&X&X&X&X&X&X&X&X&X&X&X&X&X&X&X&X&X&X`.l 2 a i 2 i r a d g g.V.{ z s a a a a a f d d Q {.&X&X&X&X&X&X&X&X&X&X&X&X&X&X&X&X&X&X&X",
"&X&X&X&X&X&X&X&X&X&X&X&X&X&X&X&X&X&X&XoXX                   8.x.8.O                     /.&X&X&X&X&X&X&X&X&X&X&X&X&X&X&X&X&X&X&X",
"&X&X&X&X&X&X&X&X&X&X&X&X&X&X&X&X&X&X&X+Xa                 7 l.A.M.e..                 > `.&X&X&X&X&X&X&X&X&X&X&X&X&X&X&X&X&X&X&X",
"&X&X&X&X&X&X&X&X&X&X&X&X&X&X&X&X&X&X&X+X2                 q.Z.S.A.Z.0..               > `.&X&X&X&X&X&X&X&X&X&X&X&X&X&X&X&X&X&X&X",
"&X&X&X&X&X&X&X&X&X&X&X&X&X&X&X&X&X&X&X+X2               Z n.A.S.S.A.M.e..             > `.&X&X&X&X&X&X&X&X&X&X&X&X&X&X&X&X&X&X&X",
"&X&X&X&X&X&X&X&X&X&X&X&X&X&X&X&X&X&X&X+X2             b v.A.S.D.S.A.Z.M.9.            > .X&X&X&X&X&X&X&X&X&X&X&X&X&X&X&X&X&X&X&X",
"&X&X&X&X&X&X&X&X&X&X&X&X&X&X&X&X&X&X&X+X2           7 c.A.S.S.D.D.S.S.S.v.7           < oX&X&X&X&X&X&X&X&X&X&X&X&X&X&X&X&X&X&X&X",
"&X&X&X&X&X&X&X&X&X&X&X&X&X&X&X&X&X&X&X+X2           q.Z.S.S.S.D.D.D.S.S.A.9.          > OX&X&X&X&X&X&X&X&X&X&X&X&X&X&X&X&X&X&X&X",
"&X&X&X&X&X&X&X&X&X&X&X&X&X&X&X&X&X&X&X+X2         6 c.A.S.S.S.D.D.S.D.S.S.k..         > .X&X&X&X&X&X&X&X&X&X&X&X&X&X&X&X&X&X&X&X",
"&X&X&X&X&X&X&X&X&X&X&X&X&X&X&X&X&X&X&X+X2         w.A.S.A.S.S.S.D.D.S.A.A.Z.c         > oX&X&X&X&X&X&X&X&X&X&X&X&X&X&X&X&X&X&X&X",
"&X&X&X&X&X&X&X&X&X&X&X&X&X&X&X&X&X&X&X-Xa       S N.S.S.A.S.D.S.D.D.S.S.S.A.c.A       2 +X&X&X&X&X&X&X&X&X&X&X&X&X&X&X&X&X&X&X&X",
"&X&X&X&X&X&X&X&X&X&X&X&X&X&X&X&X&X&X&X+Xt     Z n.A.S.S.A.S.S.D.D.D.D.D.S.A.Z.M.A     2 OX&X&X&X&X&X&X&X&X&X&X&X&X&X&X&X&X&X&X&X",
"&X&X&X&X&X&X&X&X&X&X&X&X&X&X&X&X&X&X&X#X2   v v.Z.A.S.S.S.S.D.G.G.G.D.D.S.S.A.A.m.D   u OX&X&X&X&X&X&X&X&X&X&X&X&X&X&X&X&X&X&X&X",
"&X&X&X&X&X&X&X&X&X&X&X&X&X&X&X&X&X&X&X{.3   e.M.A.S.A.S.S.D.G.H.H.H.G.G.D.S.S.A.M.m.F ' -X&X&X&X&X&X&X&X&X&X&X&X&X&X&X&X&X&X&X&X",
"&X&X&X&X&X&X&X&X&X&X&X&X&X&X&X&X&X&X&X).2 + k.Z.A.A.S.S.D.G.H.J.J.J.J.H.D.S.S.S.Z.A.m.B.|.&X&X&X&X&X&X&X&X&X&X&X&X&X&X&X&X&X&X&X",
"&X&X&X&X&X&X&X&X&X&X&X&X&X&X&X&X&X&X&X-Xp c b.A.S.S.S.S.D.H.H.J.J.K.J.H.G.D.D.S.A.A.M.P.[.&X&X&X&X&X&X&X&X&X&X&X&X&X&X&X&X&X&X&X",
"&X&X&X&X&X&X&X&X&X&X&X&X&X&X&X&X&X&X&X}.h.l.M.A.S.D.D.D.H.J.H.J.K.K.J.J.H.G.A.A.A.A.Z.P.~.&X&X&X&X&X&X&X&X&X&X&X&X&X&X&X&X&X&X&X",
"&X&X&X&X&X&X&X&X&X&X&X&X&X&X&X&X&X&X-X[.I.M.Z.A.A.D.D.G.H.J.J.J.J.J.J.H.G.D.S.A.A.Z.Z.P.~.&X&X&X&X&X&X&X&X&X&X&X&X&X&X&X&X&X&X&X",
"&X&X&X&X&X&X&X&X&X&X&X&X&X&X&X&X&X&X-X|.U.M.A.S.S.D.H.G.H.J.J.J.J.J.J.H.G.S.A.S.A.Z.Z.F.~.&X&X&X&X&X&X&X&X&X&X&X&X&X&X&X&X&X&X&X",
"&X&X&X&X&X&X&X&X&X&X&X&X&X&X&X&X&X&X&X}.L.Z.S.S.D.G.G.H.H.J.J.J.J.J.H.H.G.D.S.S.A.Z.Z.P.~.&X&X&X&X&X&X&X&X&X&X&X&X&X&X&X&X&X&X&X",
"&X&X&X&X&X&X&X&X&X&X&X&X&X&X&X&X&X&X&X].G j.A.S.D.G.G.H.H.H.J.J.J.H.H.G.D.D.S.A.Z.M.r.g.}.&X&X&X&X&X&X&X&X&X&X&X&X&X&X&X&X&X&X&X",
"&X&X&X&X&X&X&X&X&X&X&X&X&X&X&X&X&X&X&X_.= 6 u.n.Z.S.D.G.G.H.H.J.H.H.H.G.D.D.S.A.Z.z.+ : (.&X&X&X&X&X&X&X&X&X&X&X&X&X&X&X&X&X&X&X",
"&X&X&X&X&X&X&X&X&X&X&X&X&X&X&X&X&X&X&X!.*   4 D t.y.y.p.p.p.d.s.s.s.f.s.a.a.i.u.w.x . 1 (.&X&X&X&X&X&X&X&X&X&X&X&X&X&X&X&X&X&X&X",
"&X&X&X&X&X&X&X&X&X&X&X&X&X&X&X&X&X&X&X!.X   , / _ ) [ @.@.@.%.%.%.%.=.=.@. .@.@.T @   2 `.&X&X&X&X&X&X&X&X&X&X&X&X&X&X&X&X&X&X&X",
"&X&X&X&X&X&X&X&X&X&X&X&X&X&X&X&X&X&X&X!.X   & #.@.;.,.>.-.,.;.;.,.,.>.-.-.*.;.&.:.t   < `.&X&X&X&X&X&X&X&X&X&X&X&X&X&X&X&X&X&X&X",
"&X&X&X&X&X&X&X&X&X&X&X&X&X&X&X&X&X&X&X!.X     w W <.*.*.*.*.*.*.*.*.*.*.*.*.&.k w X   >  X&X&X&X&X&X&X&X&X&X&X&X&X&X&X&X&X&X&X&X",
"&X&X&X&X&X&X&X&X&X&X&X&X&X&X&X&X&X&X&X^.X       w %.@.@.#.@.@.#.#.@.@.@.@.@.X.,       >  X&X&X&X&X&X&X&X&X&X&X&X&X&X&X&X&X&X&X&X",
"&X&X&X&X&X&X&X&X&X&X&X&X&X&X&X&X&X&X&X/.>       0 X.@.@.@.@.@.@.$.@.@.@.@.#.( #       > `.&X&X&X&X&X&X&X&X&X&X&X&X&X&X&X&X&X&X&X",
"&X&X&X&X&X&X&X&X&X&X&X&X&X&X&X&X&X&X&X_.>       , ) } } } | } @.} } $.$.} [ ( #       >  X&X&X&X&X&X&X&X&X&X&X&X&X&X&X&X&X&X&X&X",
"&X&X&X&X&X&X&X&X&X&X&X&X&X&X&X&X&X&X&X_.>       ; ) } } } } } } } | $.} } [ ! #       < .X&X&X&X&X&X&X&X&X&X&X&X&X&X&X&X&X&X&X&X",
"&X&X&X&X&X&X&X&X&X&X&X&X&X&X&X&X&X&X&X/.>       $ ) @.} $.} } $.} } @.} } } _ #       2 .X&X&X&X&X&X&X&X&X&X&X&X&X&X&X&X&X&X&X&X",
"&X&X&X&X&X&X&X&X&X&X&X&X&X&X&X&X&X&X&X/.o       5 ` | } } $.$.} } } } } } ) [ &       > `.&X&X&X&X&X&X&X&X&X&X&X&X&X&X&X&X&X&X&X",
"&X&X&X&X&X&X&X&X&X&X&X&X&X&X&X&X&X&X&X_...d f j ~ X.X.@.#.#.#.#.&.*.&.o.o.X.O.~ d a f l {.&X&X&X&X&X&X&X&X&X&X&X&X&X&X&X&X&X&X&X",
"&X&X&X&X&X&X&X&X&X&X&X&X&X&X&X&X&X&X&X+XQ.R.6.6.7.7.5.5.4.3.3.2.2.2.3.4.5.4.1.1.4.7.4.E.-X&X&X&X&X&X&X&X&X&X&X&X&X&X&X&X&X&X&X&X",
"&X&X&X&X&X&X&X&X&X&X&X&X&X&X&X&X&X&X&X+XE.7.7.7.T.T.T.R.R.R.Y.R.C.C.7.7.7.7.7.6.4.4.4.W.-X&X&X&X&X&X&X&X&X&X&X&X&X&X&X&X&X&X&X&X",
"&X&X&X&X&X&X&X&X&X&X&X&X&X&X&X&X&X&X&X`.f 2 r a d k ! ] [ [ [ [ [ ] ] ( ^ Q g d d d d ..{.&X&X&X&X&X&X&X&X&X&X&X&X&X&X&X&X&X&X&X",
"&X&X&X&X&X&X&X&X&X&X&X&X&X&X&X&X&X&X&X_.>           q R U U U P U U U L L 0           o ).&X&X&X&X&X&X&X&X&X&X&X&X&X&X&X&X&X&X&X",
"&X&X&X&X&X&X&X&X&X&X&X&X&X&X&X&X&X&X&X`.>           q | / R R R R R R T T 0           > `.&X&X&X&X&X&X&X&X&X&X&X&X&X&X&X&X&X&X&X",
"&X&X&X&X&X&X&X&X&X&X&X&X&X&X&X&X&X&X&X`.>           8 Y R Y R R R R U R P %           > `.&X&X&X&X&X&X&X&X&X&X&X&X&X&X&X&X&X&X&X",
"&X&X&X&X&X&X&X&X&X&X&X&X&X&X&X&X&X&X&X).>           @ P Y U I E Y Y P P H @           > `.&X&X&X&X&X&X&X&X&X&X&X&X&X&X&X&X&X&X&X",
"&X&X&X&X&X&X&X&X&X&X&X&X&X&X&X&X&X&X&X`.>           . Y R R R I Y Y Y Y N .           > `.&X&X&X&X&X&X&X&X&X&X&X&X&X&X&X&X&X&X&X",
"&X&X&X&X&X&X&X&X&X&X&X&X&X&X&X&X&X&X&X`.>             J R R R R R R U R N             > `.&X&X&X&X&X&X&X&X&X&X&X&X&X&X&X&X&X&X&X",
"&X&X&X&X&X&X&X&X&X&X&X&X&X&X&X&X&X&X&XoX2             @ y V B C H H H y %             - `.&X&X&X&X&X&X&X&X&X&X&X&X&X&X&X&X&X&X&X",
"&X&X&X&X&X&X&X&X&X&X&X&X&X&X&X&X&X&X&XoX2             . e M B M M n B 8               - `.&X&X&X&X&X&X&X&X&X&X&X&X&X&X&X&X&X&X&X",
"&X&X&X&X&X&X&X&X&X&X&X&X&X&X&X&X&X&X&XoX2               9 C P K P P K 8               - `.&X&X&X&X&X&X&X&X&X&X&X&X&X&X&X&X&X&X&X",
"&X&X&X&X&X&X&X&X&X&X&X&X&X&X&X&X&X&X&X+Xa               5 M C C K P C %               # `.&X&X&X&X&X&X&X&X&X&X&X&X&X&X&X&X&X&X&X",
"&X&X&X&X&X&X&X&X&X&X&X&X&X&X&X&X&X&X&X+Xf               @ n m m C C m @               # `.&X&X&X&X&X&X&X&X&X&X&X&X&X&X&X&X&X&X&X",
"&X&X&X&X&X&X&X&X&X&X&X&X&X&X&X&X&X&X&XoXa               O M C m C C B O               1 ).&X&X&X&X&X&X&X&X&X&X&X&X&X&X&X&X&X&X&X",
"&X&X&X&X&X&X&X&X&X&X&X&X&X&X&X&X&X&X&XoX2                 4 e 9 9 9 8                 X ).&X&X&X&X&X&X&X&X&X&X&X&X&X&X&X&X&X&X&X",
"&X&X&X&X&X&X&X&X&X&X&X&X&X&X&X&X&X&X&X&X+.X > > > 2 2 2 2 g W ( ( W h 2 1 2 1 > > > 2 j `.&X&X&X&X&X&X&X&X&X&X&X&X&X&X&X&X&X&X&X",
"&X&X&X&X&X&X&X&X&X&X&X&X&X&X&X&X&X&X&X&X+X`.`.`.{.#X#XoX+X-X-X*X-X*X-X+X#X#XoX'.`.`.+X-X&X&X&X&X&X&X&X&X&X&X&X&X&X&X&X&X&X&X&X&X",
"&X&X&X&X&X&X&X&X&X&X&X&X&X&X&X&X&X&X&X&X&X&X&X&X&X&X&X&X&X&X&X&X&X&X&X&X&X&X&X&X&X&X&X&X&X&X&X&X&X&X&X&X&X&X&X&X&X&X&X&X&X&X&X&X",
"&X&X&X&X&X&X&X&X&X&X&X&X&X&X&X&X&X&X&X&X&X&X&X&X&X&X&X&X&X&X&X&X&X&X&X&X&X&X&X&X&X&X&X&X&X&X&X&X&X&X&X&X&X&X&X&X&X&X&X&X&X&X&X&X",
"&X&X&X&X&X&X&X&X&X&X&X&X&X&X&X&X&X&X&X&X&X&X&X&X&X&X&X&X&X&X&X&X&X&X&X&X&X&X&X&X&X&X&X&X&X&X&X&X&X&X&X&X&X&X&X&X&X&X&X&X&X&X&X&X"
};
