/* XPM */
static char *_e792039e3ae4624fcebfee32c222f46wqiAeDyHfRpgDywW[] = {
/* columns rows colors chars-per-pixel */
"56 56 104 2 ",
"   c #2E1F28",
".  c #3C1E23",
"X  c #1C222E",
"o  c #2C2327",
"O  c #22242C",
"+  c #2C2329",
"@  c #2C2929",
"#  c #332425",
"$  c #3E2123",
"%  c #342B25",
"&  c #3B2C23",
"*  c #332428",
"=  c #332B29",
"-  c #3D2D28",
";  c #3B3124",
":  c #36302A",
">  c #3A312C",
",  c #252A35",
"<  c #2B303A",
"1  c #46271F",
"2  c #46281F",
"3  c #4B2B1D",
"4  c #46351F",
"5  c #4C331D",
"6  c #4C391E",
"7  c #563617",
"8  c #583717",
"9  c #5C3B17",
"0  c #53341A",
"q  c #56391A",
"w  c #5B3B1A",
"e  c #603F16",
"r  c #603F1A",
"t  c #432521",
"y  c #462921",
"u  c #4B2B21",
"i  c #443522",
"p  c #4A3520",
"a  c #4D3B24",
"s  c #423628",
"d  c #433A29",
"f  c #4B3E28",
"g  c #533322",
"h  c #5A3C21",
"j  c #5F4017",
"k  c #5E411A",
"l  c #644316",
"z  c #674516",
"x  c #694716",
"c  c #6A4815",
"v  c #6C4A16",
"b  c #634119",
"n  c #62441A",
"m  c #674619",
"M  c #63421C",
"N  c #62421E",
"B  c #68471A",
"V  c #68471D",
"C  c #66481A",
"Z  c #6B4A1A",
"A  c #6E4B18",
"S  c #6C4B1B",
"D  c #69481E",
"F  c #6B4A1E",
"G  c #6F4D1E",
"H  c #704E1B",
"J  c #714E1D",
"K  c #75531B",
"L  c #72501D",
"P  c #74521C",
"I  c #75531F",
"U  c #76531E",
"Y  c #7A571E",
"T  c #7C591E",
"R  c #7E5B1F",
"E  c #4D402A",
"W  c #544225",
"Q  c #5C4125",
"!  c #524228",
"~  c #5E4B2A",
"^  c #644321",
"/  c #674621",
"(  c #604324",
")  c #684720",
"_  c #694821",
"`  c #6C4D23",
"'  c #715020",
"]  c #745320",
"[  c #795621",
"{  c #7B5820",
"}  c #7C5A22",
"|  c #7F5C22",
" . c #664B32",
".. c #694E35",
"X. c #815F22",
"o. c #825F24",
"O. c #856224",
"+. c #896625",
"@. c #886526",
"#. c #8B6826",
"$. c #876328",
"%. c #8E6A29",
"&. c #916D29",
"*. c #95712C",
/* pixels */
"a q 0 $ 3 3 3 t t 3 3 2 2 m 9 y l b D 2 z 9 t y l 7 0 X O l 9 9 y x l 3 t S S l $ c Y l e y e 9 _ . t q 0 . q q ",
"q 0 3 $ 3 3 0 t t 0 0 2 2 w w y q D w 2 9 7 y 0 z 7 0 X O l 9 B y x l $ t Y z l $ v T z l y z w ' . t 0 0 $ q w ",
"( 5 0 $ 0 q 2 t 0 q M 2 2 9 q 1 q ' q y 7 q / 3 z 7 0 X O 9 q G y x l $ t I z 9 t T L z l y x l [ t 0 0 1 . q q ",
"h 0 0 $ q q t t b L m 3 0 l 9 y w ] 9 y 7 q | 1 l q 0 X O 7 q J 2 c l $ t J z 0 t #.c l 9 y x x S 3 3 w t $ q q ",
"0 5 0 t q q t t S X.l 0 7 l 9 t G b l t 7 B X.y S b 0 X O 7 q w w c l $ t I 9 0 t o.Y 9 q 1 z e I 2 t w y 0 w q ",
"0 3 0 t w w y t H Y m 0 0 l q y ] 8 l t q X.G y D w 0 X O 7 q u x c z g t Y 9 0 t ] I G 3 2 z l o.$ t 9 2 m k w ",
"0 0 0 . q M y y H B Z 0 3 l 1 y ] 9 l t b +.l y b 7 0 X y 7 q u z c x V t Y z q t { v o.1 y x c J . $ l 2 b n q ",
"& & & $ w b y + s & ; = * ; + + s ; & y | D l y e 0 * O 7 9 q u z c x m t s ; % + d ; d + + ; ; ; . $ j + % ; % ",
"o o o # & & + X X X X X X X X X X X X + E 9 S y 9 0 X O 8 z 7 u H x 9 & + X X X X X X X X X X X X + + % X X X < ",
"o + + o 4 a s X X X X X X X X X X X X - i 9 L 2 9 0 X O 9 x 9 y M x 9 & * X X X X X X X X X X X X * ~ i X X X < ",
"& y o $ l H D & i a & & & a i # 4 & # u b l J y 8 0 X O l x z q u x z 9 t 4 4 & # & & 4 p - 6 4 & t %.z i & i s ",
"3 0 1 t z J G u Z J 9 3 0 I B y l q t y b x J t 7 0 X O c x 9 l u I e l y x z 0 $ 7 7 z z g c z 9 t Y | 9 3 w w ",
"3 0 3 1 z L ] u I m e 3 e G S t l m q y b H B 2 7 q i O 9 x 7 l u O.9 z y v z 0 . 7 9 x w g c z 2 t c %.q 3 w w ",
"3 0 3 1 z J h g Z l l 3 x L m t z L l y b I l 2 9 l 9 O 9 x 9 l u | l 9 y H b 9 $ 9 z x 9 g c z . 2 c &.9 2 w h ",
"3 0 3 1 z [ 0 y 9 l l 2 x I l y S v l y m I l 3 z z q O 9 c z l u L x 9 y c b 9 $ l x 9 l g x 9 . y v &.l 2 w h ",
"3 0 3 t l o.9 t 9 l l 2 x I l y H x l t S I z 2 x z 0 O 9 c z q y L x l y z b 9 $ z x 8 l g x 9 . t v *.z 2 w q ",
"3 0 3 t z O.D t 9 l l 2 x I 3 y L x l t S Z z 2 9 9 0 O 9 c l y ` Z S l y Y b l $ x x e z g x l w $ b *.9 2 k  .",
"3 0 0 t l [ o.t q l 9 2 x I . y H x e t S b 0 2 9 7 0 O 9 c l y +.z L l y O.Z l $ x 9 z 0 g x l L $ b *.9 2 k ..",
"3 0 3 t l m $.t q 9 9 2 c I $ y v x e t S b y 3 z 7 0 O l x l t +.x v l y O.H l $ x l z u g x z L t O.T l 2 b Q ",
"3 q 3 t e q o.t q 9 e 2 c Y q u x x l t v Z t 2 z 7 0 X ; 9 z t +.x z l y O.H l $ c x z u y q x J t *.x l 2 b h ",
"0 q 0 y m q o.t q 9 l 2 v Y 9 3 x x b t v Z 1 3 z 7 0 X O 9 z t O.Y z l y O.H l $ 9 x z y y 3 z J t *.x l 0 n h ",
"q 0 0 t D q O.t q 7 l y S Y q u z x m t c B 2 w z q 0 X O 9 z t O.X.z l y +.H l t G c x q 2 0 l J t *.z z 3 V h ",
"0 0 0 t V q O.t V 7 l y L Y q y 9 x m t x z u x z q 0 X O 9 z t +.L H 9 u +.H l t T c c z 1 9 z J t *.m z 2 C h ",
"0 0 0 t w V o.y ] 8 l 3 I H V y 9 x m t x l u x z 7 0 X O 9 z 0 h x S 3 u I H l t L L 9 l t z H r t *.m q q C h ",
"0 0 q t q L } y ] 9 z 3 L x ' y e x m y x 9 u x l 7 0 X O 7 l l t Y z 2 g x S l $ l I 9 l t c Y 0 t *.b y 0 V h ",
"0 3 q t e J ] y ] 9 z 2 b L ' 2 l x m y x M % q z 9 0 X O 7 e e $ f l y ' x x l $ l S 9 z y c Y 0 t *.b t y V q ",
"0 3 0 y z J ' y B D z 2 q I [ 2 l x m y x ` O 2 x l 0 X O 7 e q . O 9 y O.x z 9 $ c x 9 z 2 c Y 0 t *.b t t b w ",
"3 3 0 y Z ] ' t q ] l 2 9 I | 3 l x b y z Q X # x z w X O 7 l 2 + O q y O.x z 0 $ x 9 9 z 3 c I 0 t %.l t t b h ",
"3 0 0 y b G [ t w ] 9 2 9 I | 3 l x l t i = X O i z l X O 9 e $ X X & y I x z 9 $ z 7 9 S 3 L b 0 t +.l t t w h ",
"3 0 0 t q b [ t l [ l 2 9 I | 3 l x l t @ p i # @ x l X O 9 9 + & a O & x x l z $ 9 7 q w 2 Y 7 0 t O.z y t w h ",
"3 0 0 y q m ] t l [ z 2 9 G ^ 2 l z l t = q 0 t @ 9 l X O 7 9 O u ] X @ Y x l z . 7 e q y 3 I 7 9 t O.z y t w h ",
"3 0 2 y q c ] y l { z 2 l D g 1 l z e y ~ % # # 6 l q X O 7 9 X + d X & X.z l z $ l I 9 y 3 S 7 l 0 h l u t 5 h ",
"3 0 t 2 q x [ y l | z 1 z b g 1 9 x l y O.6 4 & x x 0 X O 7 l p & 4 4 u H I l z $ c | x / 2 m b e 5 $ l u q y h ",
"3 0 y 2 l x | y l { z 2 z l ` 3 9 x B y O.z l 3 x x 0 X O 9 9 z g x z w q H S z $ 0 O.v [ 2 l m 9 $ $ l u l 0 h ",
"3 q 3 y z x | y l D z 2 z z | 3 l c S y O.z 0 3 x x 0 X O l 9 z u x c S 2 9 S S . t O.x | 2 Z m 9 . $ l y l q h ",
"3 q 0 2 l x | y l l z 2 z l / 0 l z I 3 O.l y w x 9 0 X O 9 9 l u x c S 2 8 x S . t O.c | y H m l . $ l y l 9 h ",
"3 q 5 2 Z z [ y e e z 1 z l g 0 9 z { 3 | z w q z 0 * X O 7 z l u x x B 2 l x w . w O.c | y D S z . 0 l y l 7 h ",
"3 0 3 3 x 9 I y 9 e z 1 z l g 0 7 z | u | x S 2 z 0 X X O 7 z l u z z l y x x 0 $ v O.c | 2 e I z $ l Z y l q h ",
"2 3 2 u l 9 Y y 7 l z 2 z 9 g q 7 x | y { x S 2 z 0 X X & 8 l 0 y z z 9 y x x 0 $ c D I ` 2 l I z $ z ] # 0 q h ",
"& 1 2 y l 9 a + % & ; o ; % = & % s | 2 V Y S 2 z 0 X O 7 9 l t y 9 z q t ; ; % + ; % d : + ; s ; t L d X + % > ",
"# # $ # & % O X O X X X X X X X X O d o & X.m 2 z 0 X O 7 8 l $ t 9 l * + X X X X X X X X X X X X + d X X X X , ",
"# # y O X X X X O X X X X X X X X X O # i X.B 2 z 0 X O 7 8 l $ t w l # * X X X X X X X X X X X X O ! X X X X , ",
"# # 0 # W 4 i X X O a # p i # i 4 a Q t 5 { 0 2 l 0 X O 7 7 l $ t k l t u 4 &   # 6 i W p & i & & * { & X X & , ",
"1 3 0 y T l z a 4 i L 2 z n 2 q z Z ] t y [ y 2 w 0 X O 7 l l . t k 9 t g 9 0 . t x z T z 2 l 7 q $ h 0 & & q s ",
"3 0 0 2 { 9 z g z q I 2 C n 0 0 z x G 1 y [ y 2 k 0 X O 9 z l t ^ w q t p 9 0 . t x 9 Y w 2 z 9 m . $ 9 3 q 9 h ",
"3 0 5 y { 7 l y x b S 2 C w q 0 z z D t u S q 3 k 0 X O 9 z z t / w q y V l 0 . $ c D S q 2 z 9 J $ h l 2 z l h ",
"2 5 2 2 S D l y x D z 2 z q w 0 z z [ t u z z 3 m 0 X O 9 z z $ g 0 9 y Y z q 0 $ c ' 9 q 1 x l S $ m z 2 z l h ",
"2 3 2 2 x [ l y c L z 2 9 w q 0 x Y G t ) z l y w 0 X X & l z $ g 2 l y Y z e z $ v ] 7 q y x z m $ n l 2 n l h ",
"2 5 2 2 Z | l y c I z 2 e b 0 q x O.l y Y 9 q 2 0 0 X X O w z 3 0 2 l y Y 9 D l t I H l k 1 c C n $ m l y k z M ",
"2 0 3 2 Z | z y v Z z 2 z V 0 w Y L l y L 7 q 2 w 0 X X O w l q 2 y l y Y q G z t T c c m 2 c z b $ b l 3 k m k ",
"3 0 0 2 Z | x ( c l 9 2 z w g w O.l 3 y S 8 l 2 h q & X O q k 9 y y z 2 S V G z t J c c z y c x l $ b l y w n q ",
"0 0 0 1 x H L h x l q 2 z q 3 _ [ l $ y m 8 z u 0 7 0 X O 7 b l t y x q 0 { S z $ V c c z t c I q $ m l t b n q ",
"0 0 0 1 z x { 3 x l 9 2 l 9 3 o.D l . y w 9 z g q 7 0 X O 7 b l . t c l y X.c z $ w c c z t c X.0 $ m b t m m Q ",
"0 q q 2 z z S y z l 9 2 z e g ^ w z 3 q 3 l z g z e w X O q m l . q c l y L K z . 3 c c z y T L 9 $ z n t 0 b Q ",
"0 0 q 3 z 9 l t z z q 2 z l g 0 e x 9 q t z I p x x l X O 9 z l $ z x z 1 x T z . $ c c z y O.z l $ z n t y k h ",
"0 0 w 3 z 7 9 y z z q 2 9 9 0 0 l x l y y I } 2 9 z q X O 9 z 9 $ z z 9 2 z m V . $ c x 9 y O.l e $ z q t y k w "
};
