/* XPM */
static char *_78d3a6c96a74130e3bff96f9b5b4b31ZnELJKpBr4uAfAqo[] = {
/* columns rows colors chars-per-pixel */
"64 64 200 2 ",
"   c 0",
".  c #0B0302",
"X  c #0D0C0C",
"o  c #0A0907",
"O  c #120503",
"+  c #1B0104",
"@  c #130905",
"#  c #1A0C07",
"$  c #120D0D",
"%  c #1A0C0B",
"&  c #1D110D",
"*  c #0E0F10",
"=  c #000F17",
"-  c #140F12",
";  c #0F1110",
":  c #131214",
">  c #1B1414",
",  c #191816",
"<  c #161619",
"1  c #19171A",
"2  c #1B1B1B",
"3  c #2D0B01",
"4  c #210E09",
"5  c #250903",
"6  c #380D03",
"7  c #24120C",
"8  c #34140B",
"9  c #3D170B",
"0  c #211616",
"q  c #2D1913",
"w  c #261A18",
"e  c #391B11",
"r  c #242119",
"t  c #3D2219",
"y  c #1F2920",
"u  c #242424",
"i  c #292727",
"p  c #292926",
"a  c #2B2B2A",
"s  c #272826",
"d  c #332D2B",
"f  c #352827",
"g  c #37322E",
"h  c #3B3532",
"j  c #3B3938",
"k  c #2B3635",
"l  c #470E04",
"z  c #561E01",
"x  c #6B1E00",
"c  c #601902",
"v  c #4C2515",
"b  c #4A2619",
"n  c #4C2A1D",
"m  c #452618",
"M  c #532B1C",
"N  c #752600",
"B  c #7B2300",
"V  c #742900",
"C  c #672610",
"Z  c #4E2E21",
"A  c #462B22",
"S  c #502D20",
"D  c #48372A",
"F  c #543224",
"G  c #5A3627",
"H  c #553629",
"J  c #593729",
"K  c #5B3A2C",
"L  c #573A2B",
"P  c #433533",
"I  c #4B3935",
"U  c #533D36",
"Y  c #5E3E35",
"T  c #543D3A",
"R  c #5D3E3C",
"E  c #603C2E",
"W  c #623D3C",
"Q  c #7F4B14",
"!  c #45403B",
"~  c #554039",
"^  c #5B413C",
"/  c #63443D",
"(  c #654539",
")  c #764536",
"_  c #573F41",
"`  c #633E41",
"'  c #474746",
"]  c #564644",
"[  c #5C4543",
"{  c #5F4946",
"}  c #525253",
"|  c #654643",
" . c #6B4643",
".. c #654944",
"X. c #694944",
"o. c #654B4A",
"O. c #694C4A",
"+. c #66454A",
"@. c #704E49",
"#. c #6E514B",
"$. c #64554E",
"%. c #71524B",
"&. c #685151",
"*. c #6F6F6F",
"=. c #706E6F",
"-. c #766E70",
";. c #786E72",
":. c #767374",
">. c #797576",
",. c #7B7778",
"<. c #7D7B7C",
"1. c #7B7977",
"2. c #9D0D00",
"3. c #842C01",
"4. c #962F01",
"5. c #9C2F02",
"6. c #943400",
"7. c #A53400",
"8. c #A73B02",
"9. c #CC2900",
"0. c #8A4517",
"q. c #9E5B18",
"w. c #94541A",
"e. c #A84302",
"r. c #B04B00",
"t. c #AD510C",
"y. c #A95515",
"u. c #A75D18",
"i. c #A6611A",
"p. c #A76217",
"a. c #B56A1B",
"s. c #9D553E",
"d. c #AE732D",
"f. c #C95102",
"g. c #DA5600",
"h. c #F94000",
"j. c #EC5B01",
"k. c #E25E00",
"l. c #F35E00",
"z. c #D76800",
"x. c #ED6100",
"c. c #F26102",
"v. c #FE6902",
"b. c #ED7100",
"n. c #FF7500",
"m. c #FE7B00",
"M. c #817E7E",
"N. c #CB5F41",
"B. c #FE8400",
"V. c #FE8C00",
"C. c #FC830F",
"Z. c #FF9300",
"A. c #FF9B00",
"S. c #FD8610",
"D. c #FF9713",
"F. c #FFA300",
"G. c #FFAC00",
"H. c #FFB300",
"J. c #FFB900",
"K. c #FEA01B",
"L. c #FB9929",
"P. c #FEA723",
"I. c #FFB223",
"U. c #868282",
"Y. c #888382",
"T. c #8B8B8B",
"R. c #97908D",
"E. c #AFAFAD",
"W. c #D6D9DC",
"Q. c #D9DADC",
"!. c #FEFADC",
"~. c #FBF4D6",
"^. c #DDDFE0",
"/. c #E3E3E5",
"(. c #E4E8E5",
"). c #EAE9E5",
"_. c #E7E8E9",
"`. c #ECEDED",
"'. c #E8E7E8",
"]. c #F0EFEF",
"[. c #ECF1E8",
"{. c #FCFBE3",
"}. c #F2F2ED",
"|. c #F6FAE8",
" X c #ECEEF1",
".X c #EFF1F3",
"XX c #F1F2F2",
"oX c #F2F3F4",
"OX c #F5F5F6",
"+X c #F5F4F4",
"@X c #F7F8F7",
"#X c #FBFCF3",
"$X c #F7F7F8",
"%X c #F9F9F9",
"&X c #FEFEFE",
"*X c white",
"=X c 0",
"-X c #FDFEFE",
";X c #FFFFFF",
":X c #F9F6F5",
/* pixels */
"=X=X=X=X=X=X=X=X=X=X=X=X=X=X=X=X=X=X=X=X=X=X=X=X=X=X=X=X=X=X=X=X=X=X=X=X=X=X=X=X=X=X=X=X=X=X=X=X=X=X=X=X=X=X=X=X=X=X=X=X=X=X=X=X",
"=X=X=X=X=X=X=X=X=X=X=X=X=X=X=X=X=X=X=X=X=X=X=X=X=X=X=X=X=X=X=X=X=X=X=X=X=X=X=X=X=X=X=X=X=X=X=X=X=X=X=X=X=X=X=X=X=X=X=X=X=X=X=X=X",
"=X=X=X=X=X=X=X=X=X=X=X=X=X=X=X=X=X=X=X=X=X=X=X=X=X=X=X=X=X=X=X=X=X=X=X=X=X=X=X=X=X=X=X=X=X=X=X=X=X=X=X=X=X=X=X=X=X=X=X=X=X=X=X=X",
"=X=X=X=X=X=X=X=X=X=X=X=X=X=X=X=X=X=X=X=X=X=X=X=X=X=X=X=X=X=X=X=X=X=X=X=X=X=X=X=X=X=X=X=X=X=X=X=X=X=X=X=X=X=X=X=X=X=X=X=X=X=X=X=X",
"=X=X=X=X=X=X=X=X=X=X=X=X=X=X=X=X=X=X=X=X=X=X=X=X=X=X=X=X=X=X=X=X=X=X=X=X=X=X=X=X=X=X=X=X=X=X=X=X=X=X=X=X=X=X=X=X=X=X=X=X=X=X=X=X",
"=X=X=X=X=X=X=X=X=X=X=X=X=X=X=X=X=X=X=X=X=X=X=X=X=X=X=X=X=X=X=X=X=X=X=X=X=X=X=X=X=X=X=X=X=X=X=X=X=X=X=X=X=X=X=X=X=X=X=X=X=X=X=X=X",
"=X=X=X=X=X=X=X=X=X=X=X=X=X=X=X=X=X=X=X=X=X=X=X=X=X=X=X=X=X=X=X=X=X=X=X=X=X=X=X=X=X=X=X=X=X=X=X=X=X=X=X=X=X=X=X=X=X=X=X=X=X=X=X=X",
"=X=X=X=X=X=X=X=X=X=X=X=X=X=X=X=X=X=X=X=X=X=X=X=X=X=X=X=X=X=X=X=X=X=X=X=X=X=X=X=X=X=X=X=X=X=X=X=X=X=X=X=X=X=X=X=X=X=X=X=X=X=X=X=X",
"=X=X=X=X=X=X=X=X=X=X=X=X=X=X=X=X=X=X=X=X=X=X=X=X=X=X=X=X=X=X=X=X=X=X=X=X=X=X=X=X=X=X=X=X=X=X=X=X=X=X=X=X=X=X=X=X=X=X=X=X=X=X=X=X",
"=X=X=X=X=X=X=X=X=X=X=X=X=X=X=X=X=X=X=X=X=X=X=X=X=X=X=X=X=X=X=X=X=X=X=X=X=X=X=X=X=X=X=X=X=X=X=X=X=X=X=X=X=X=X=X=X=X=X=X=X=X=X=X=X",
"=X=X=X=X=X=X=X=X=X=X=X=X=X=X=X=X=X=X=X=X=X=X=X=X=X=X=X=X=X=X=X=X=X=X=X=X=X=X=X=X=X=X=X=X=X=X=X=X=X=X=X=X=X=X=X=X=X=X=X=X=X=X=X=X",
"=X=X=X=X=X=X=X=X=X=X=X=X=X=X=X=X=X=X=X=X=X=X=X=X=X=X=X+ 9.h.2.. =X=X=X=X=X=X=X=X=X=X=X=X=X=X=X=X=X=X=X=X=X=X=X=X=X=X=X=X=X=X=X=X",
"=X=X=X=X=X=X=X=X=X=X=X=X=X=X=X=X=X=X=X=X=X=X=X=X=X=X=Xc c.m.v.8.. =X=X=X=X=X=X=X=X=X=X=X=X=X=X=X=X=X=X=X=X=X=X=X=X=X=X=X=X=X=X=X",
"=X=X=X=X=X=X=X=X=X=X=X=X=X=X=X=X=X=X=X=X=X=X=X=X=X=X. 8.m.B.m.n.4.. =X=X=X=X=X=X=X=X=X=X=X=X=X=X=X=X=X=X=X=X=X=X=X=X=X=X=X=X=X=X",
"=X=X=X=X=X=X=X=X=X=X=X=X=X=X=X=X=X=X=X=X=X=X=X=X=X=Xl l.B.V.B.B.n.7.=X=X=X=X=X=X=X=X=X=X=X=X=X=X=X=X=X=X=X=X=X=X=X=X=X=X=X=X=X=X",
"=X=X=X=X=X=X=X=X=X=X=X=X=X=X=X=X=X=X=X=X=X=X=X=X=X. 7.n.B.Z.V.B.B.n.B =X=X=X=X=X=X=X=X=X=X=X=X=X=X=X=X=X=X=X=X=X=X=X=X=X=X=X=X=X",
"=X=X=X=X=X=X=X=X=X=X=X=X=X=X=X=X=X=X=X=X=X=X=X=X=X6 k.B.B.V.Z.Z.V.V.n.B =X=X=X=X=X=X=X=X=X=X=X=X=X=X=X=X=X=X=X=X=X=X=X=X=X=X=X=X",
"=X=X=X=X=X=X=X=X=X=X=X=X=X=X=X=X=X=X=X=X=X=X=X=X=X4.m.V.Z.A.Z.Z.Z.V.V.m.x =X=X=X=X=X=X=X=X=X=X=X=X=X=X=X=X=X=X=X=X=X=X=X=X=X=X=X",
"=X=X=X=X=X=X=X=X=X=X=X=X=X=X=X=X=X=X=X=X=X=X=X=X3 j.V.Z.Z.F.A.A.A.A.Z.V.m.N =X=X=X=X=X=X=X=X=X=X=X=X=X=X=X=X=X=X=X=X=X=X=X=X=X=X",
"=X=X=X=X=X=X=X=X=X=X=X=X=X=X=X=X=X=X=X=X=X=X=X=X3.m.V.Z.Z.F.F.F.A.A.Z.V.V.m.x =X=X=X=X=X=X=X=X=X=X=X=X=X=X=X=X=X=X=X=X=X=X=X=X=X",
"=X=X=X=X=X=X=X=X=X=X=X=X=X=X=X=X=X=X=X=X=X=X=X5 g.V.V.Z.A.F.G.G.A.A.Z.Z.Z.V.n.V =X=X=X=X=X=X=X=X=X=X=X=X=X=X=X=X=X=X=X=X=X=X=X=X",
"=X=X=X=X=X=X=X=X=X=X=X=X=X=X=X=X=X=X=X=X=X=X=X3.m.V.Z.A.F.G.H.H.G.F.A.Z.Z.V.B.m.N =X=X=X=X=X=X=X=X=X=X=X=X=X=X=X=X=X=X=X=X=X=X=X",
"=X=X=X=X=X=X=X=X=X=X=X=X=X=X=X=X=X=X=X=X=X=Xz x.B.Z.A.F.G.G.H.J.H.G.F.Z.Z.Z.V.V.n.B =X=X=X=X=X=X=X=X=X=X=X=X=X=X=X=X=X=X=X=X=X=X",
"=X=X=X=X=X=X=X=X=X=X=X=X=X=X=X=X=X=X=X=X=Xz j.m.Z.A.A.F.G.G.H.J.J.H.G.F.A.Z.Z.V.B.m.V =X=X=X=X=X=X=X=X=X=X=X=X=X=X=X=X=X=X=X=X=X",
"=X=X=X=X=X=X=X=X=X=X=X=X=X=X=X=X=X=X=X=X=Xc.m.V.Z.A.A.F.H.H.H.J.J.J.H.F.Z.V.Z.Z.V.V.m.=X=X=X=X=X=X=X=X=X=X=X=X=X=X=X=X=X=X=X=X=X",
"=X=X=X=X=X=X=X=X=X=X=X=X=X=X=X=X=X=X=X=X=Xm.B.V.Z.A.F.F.H.J.J.H.J.J.H.F.A.Z.Z.V.V.Z.B.=X=X=X=X=X=X=X=X=X=X=X=X=X=X=X=X=X=X=X=X=X",
"=X=X=X=X=X=X=X=X=X=X=X=X=X=X=X=X=X=X=X=X=Xm.V.Z.Z.F.G.G.H.J.H.H.J.J.H.F.A.Z.V.B.V.Z.Z.=X=X=X=X=X=X=X=X=X=X=X=X=X=X=X=X=X=X=X=X=X",
"=X=X=X=X=X=X=X=X=X=X=X=X=X=X=X=X=X=X=X=X=XB.V.V.Z.F.G.G.H.J.J.H.H.J.G.F.A.Z.V.V.V.V.Z.=X=X=X=X=X=X=X=X=X=X=X=X=X=X=X=X=X=X=X=X=X",
"=X=X=X=X=X=X=X=X=X=X=X=X=X=X=X=X=X=X=X=X=XV.Z.Z.Z.F.G.G.H.J.J.H.H.H.G.F.A.Z.V.V.V.B.Z.=X=X=X=X=X=X=X=X=X=X=X=X=X=X=X=X=X=X=X=X=X",
"=X=X=X=X=X=X=X=X=X=X=X=X=X=X=X=X=X=X=X=X=XV.Z.Z.A.F.G.G.H.H.H.H.H.H.G.F.A.Z.Z.Z.V.V.V.=X=X=X=X=X=X=X=X=X=X=X=X=X=X=X=X=X=X=X=X=X",
"=X=X=X=X=X=X=X=X=X=X=X=X=X=X=X=X=X=X=X=X=Xz.V.A.A.F.G.G.H.H.H.H.H.G.F.F.A.Z.Z.Z.V.m.5.=X=X=X=X=X=X=X=X=X=X=X=X=X=X=X=X=X=X=X=X=X",
"=X=X=X=X=X=X=X=X=X=X=X=X=X=X=X=X=X=X=X=X=X3 e.b.B.Z.A.F.F.G.G.G.G.F.A.A.Z.Z.Z.V.V.f.O =X=X=X=X=X=X=X=X=X=X=X=X=X=X=X=X=X=X=X=X=X",
"=X=X=X=X=X=X=X=X=X=X=X=X=X=X=X=X=X=X=X=X=X=X+ C 0.0.w.q.q.q.u.i.i.p.u.u.y.y.t.r.6.l . =X=X=X=X=X=X=X=X=X=X=X=X=X=X=X=X=X=X=X=X=X",
"=X=X=X=X=X=X=X=X=X=X=X=X=X=X=X=X=X=X=X=X=X=X0 Y Y W / | | +.+.O.o.o.O.O.| ` W  .L @ =X=X=X=X=X=X=X=X=X=X=X=X=X=X=X=X=X=X=X=X=X=X",
"=X=X=X=X=X=X=X=X=X=X=X=X=X=X=X=X=X=X=X=X=X=X> o.| #.%.%.#.%.#.#.%.%.%.@.@.O.#.&.$.r =X=X=X=X=X=X=X=X=X=X=X=X=X=X=X=X=X=X=X=X=X=X",
"=X=X=X=X=X=X=X=X=X=X=X=X=X=X=X=X=X=X=X=X=X=X=Xw P &.o.o.o.O.o.O.O.O.O.O.O.O.o.P w o =X=X=X=X=X=X=X=X=X=X=X=X=X=X=X=X=X=X=X=X=X=X",
"=X=X=X=X=X=X=X=X=X=X=X=X=X=X=X=X=X=X=X=X=X=X=X=Xw o.| | | | | o.o.| | o.| | [ > =X=X=X=X=X=X=X=X=X=X=X=X=X=X=X=X=X=X=X=X=X=X=X=X",
"=X=X=X=X=X=X=X=X=X=X=X=X=X=X=X=X=X=X=X=X=X=X=X=X0 [ | | | | | | X.| X.| | O._ $ =X=X=X=X=X=X=X=X=X=X=X=X=X=X=X=X=X=X=X=X=X=X=X=X",
"=X=X=X=X=X=X=X=X=X=X=X=X=X=X=X=X=X=X=X=X=X=X=X=X> R / | / ....| | / X.X./ ^ T $ =X=X=X=X=X=X=X=X=X=X=X=X=X=X=X=X=X=X=X=X=X=X=X=X",
"=X=X=X=X=X=X=X=X=X=X=X=X=X=X=X=X=X=X=X=X=X=X=X=X> R / / / / / | / / X.( / ^ I $ =X=X=X=X=X=X=X=X=X=X=X=X=X=X=X=X=X=X=X=X=X=X=X=X",
"=X=X=X=X=X=X=X=X=X=X=X=X=X=X=X=X=X=X=X=X=X=X=X=X> R | / ../ ..../ / | / / / U $ =X=X=X=X=X=X=X=X=X=X=X=X=X=X=X=X=X=X=X=X=X=X=X=X",
"=X=X=X=X=X=X=X=X=X=X=X=X=X=X=X=X=X=X=X=X=X=X=X=X7 /  .( / ..../ / | / / W R ^ & =X=X=X=X=X=X=X=X=X=X=X=X=X=X=X=X=X=X=X=X=X=X=X=X",
"=X=X=X=X=X=X=X=X=X=X=X=X=X=X=X=X=X=X=X=X=Xa i d P ] [ [ | ....| ..o...{ { ] ] j a u s =X=X=X=X=X=X=X=X=X=X=X=X=X=X=X=X=X=X=X=X=X",
"=X=X=X=X=X=X=X=X=X=X=X=X=X=X=X=X=X=X=X=X=XT.<.<.<.<.>.>.;.;.;.-.-.-.:.>.,.:.*.=.:.1.>.=X=X=X=X=X=X=X=X=X=X=X=X=X=X=X=X=X=X=X=X=X",
"=X=X=X=X=X=X=X=X=X=X=X=X=X=X=X=X=X=X=X=X=XM.M.M.Y.Y.Y.Y.Y.Y.Y.Y.Y.M.<.<.<.<.M.<.<.,.1.=X=X=X=X=X=X=X=X=X=X=X=X=X=X=X=X=X=X=X=X=X",
"=X=X=X=X=X=X=X=X=X=X=X=X=X=X=X=X=X=X=X=X=X: 2 u i d I ~ ~ ^ T ^ U U U U I h a a a a a =X=X=X=X=X=X=X=X=X=X=X=X=X=X=X=X=X=X=X=X=X",
"=X=X=X=X=X=X=X=X=X=X=X=X=X=X=X=X=X=X=X=X=X=X=X=X=X=Xq K H H H H H H H Z F w =X=X=X=X=X=X=X=X=X=X=X=X=X=X=X=X=X=X=X=X=X=X=X=X=X=X",
"=X=X=X=X=X=X=X=X=X=X=X=X=X=X=X=X=X=X=X=X=X=X=X=X=X=Xq ( Y K K K K J K H L 7 =X=X=X=X=X=X=X=X=X=X=X=X=X=X=X=X=X=X=X=X=X=X=X=X=X=X",
"=X=X=X=X=X=X=X=X=X=X=X=X=X=X=X=X=X=X=X=X=X=X=X=X=X=X& J K H J K K K H J F # =X=X=X=X=X=X=X=X=X=X=X=X=X=X=X=X=X=X=X=X=X=X=X=X=X=X",
"=X=X=X=X=X=X=X=X=X=X=X=X=X=X=X=X=X=X=X=X=X=X=X=X=X=X@ F J G G G J J G F Z @ =X=X=X=X=X=X=X=X=X=X=X=X=X=X=X=X=X=X=X=X=X=X=X=X=X=X",
"=X=X=X=X=X=X=X=X=X=X=X=X=X=X=X=X=X=X=X=X=X=X=X=X=X=X. J E J J G J J J J n . =X=X=X=X=X=X=X=X=X=X=X=X=X=X=X=X=X=X=X=X=X=X=X=X=X=X",
"=X=X=X=X=X=X=X=X=X=X=X=X=X=X=X=X=X=X=X=X=X=X=X=X=X=X=XA J J J J K J H J n . =X=X=X=X=X=X=X=X=X=X=X=X=X=X=X=X=X=X=X=X=X=X=X=X=X=X",
"=X=X=X=X=X=X=X=X=X=X=X=X=X=X=X=X=X=X=X=X=X=X=X=X=X=X=X@ t m n n Z Z Z t % =X=X=X=X=X=X=X=X=X=X=X=X=X=X=X=X=X=X=X=X=X=X=X=X=X=X=X",
"=X=X=X=X=X=X=X=X=X=X=X=X=X=X=X=X=X=X=X=X=X=X=X=X=X=X=X. e b n b b m n 7 =X=X=X=X=X=X=X=X=X=X=X=X=X=X=X=X=X=X=X=X=X=X=X=X=X=X=X=X",
"=X=X=X=X=X=X=X=X=X=X=X=X=X=X=X=X=X=X=X=X=X=X=X=X=X=X=X=X8 M F M F F S 4 =X=X=X=X=X=X=X=X=X=X=X=X=X=X=X=X=X=X=X=X=X=X=X=X=X=X=X=X",
"=X=X=X=X=X=X=X=X=X=X=X=X=X=X=X=X=X=X=X=X=X=X=X=X=X=X=X=X4 b M M M F M # =X=X=X=X=X=X=X=X=X=X=X=X=X=X=X=X=X=X=X=X=X=X=X=X=X=X=X=X",
"=X=X=X=X=X=X=X=X=X=X=X=X=X=X=X=X=X=X=X=X=X=X=X=X=X=X=X=X@ v v v M M v @ =X=X=X=X=X=X=X=X=X=X=X=X=X=X=X=X=X=X=X=X=X=X=X=X=X=X=X=X",
"=X=X=X=X=X=X=X=X=X=X=X=X=X=X=X=X=X=X=X=X=X=X=X=X=X=X=X=XO b M v M M n O =X=X=X=X=X=X=X=X=X=X=X=X=X=X=X=X=X=X=X=X=X=X=X=X=X=X=X=X",
"=X=X=X=X=X=X=X=X=X=X=X=X=X=X=X=X=X=X=X=X=X=X=X=X=X=X=X=X=X5 9 9 9 8 7 =X=X=X=X=X=X=X=X=X=X=X=X=X=X=X=X=X=X=X=X=X=X=X=X=X=X=X=X=X",
"=X=X=X=X=X=X=X=X=X=X=X=X=X=X=X=X=X=X=X=X=X=X=X=X=X=X=X=X=X=X=X=X=X=X=X=X=X=X=X=X=X=X=X=X=X=X=X=X=X=X=X=X=X=X=X=X=X=X=X=X=X=X=X=X",
"=X=X=X=X=X=X=X=X=X=X=X=X=X=X=X=X=X=X=X=X=X=X=X=X=X=X=X=X=X=X=X=X=X=X=X=X=X=X=X=X=X=X=X=X=X=X=X=X=X=X=X=X=X=X=X=X=X=X=X=X=X=X=X=X",
"=X=X=X=X=X=X=X=X=X=X=X=X=X=X=X=X=X=X=X=X=X=X=X=X=X=X=X=X=X=X=X=X=X=X=X=X=X=X=X=X=X=X=X=X=X=X=X=X=X=X=X=X=X=X=X=X=X=X=X=X=X=X=X=X",
"=X=X=X=X=X=X=X=X=X=X=X=X=X=X=X=X=X=X=X=X=X=X=X=X=X=X=X=X=X=X=X=X=X=X=X=X=X=X=X=X=X=X=X=X=X=X=X=X=X=X=X=X=X=X=X=X=X=X=X=X=X=X=X=X",
"=X=X=X=X=X=X=X=X=X=X=X=X=X=X=X=X=X=X=X=X=X=X=X=X=X=X=X=X=X=X=X=X=X=X=X=X=X=X=X=X=X=X=X=X=X=X=X=X=X=X=X=X=X=X=X=X=X=X=X=X=X=X=X=X"
};
