/* XPM */
static char *_a4a0e3203324013c62567f84c611ed3iEtQIqFmDj2htokU[] = {
/* columns rows colors chars-per-pixel */
"32 32 11 1 ",
"  c None",
". c #3E2723",
"X c #4E342E",
"o c #5D4037",
"O c #595652",
"+ c #6D4C41",
"@ c #795548",
"# c #696A6A",
"$ c #FF6600",
"% c #FF9500",
"& c #FFC107",
/* pixels */
"                                ",
"                                ",
"                                ",
"                                ",
"                                ",
"                                ",
"               $                ",
"               $$               ",
"              $%%$              ",
"              $%%%$             ",
"             $%%%%$             ",
"            $%%%&%%$            ",
"            $%%&&%%%$           ",
"           $%%&&&&%%$           ",
"           %%&&&&&%%%           ",
"           %%%&&&&&%%           ",
"           .@@@@@@@@.           ",
"           .@@@@@@@@.           ",
"            .++++++.            ",
"            .++++++.            ",
"            .++++++.            ",
"          OO########OO          ",
"          OO########OO          ",
"             .oooo.             ",
"             .oooo.             ",
"             .oooo.             ",
"              .XX.              ",
"              .XX.              ",
"              .XX.              ",
"               ..               ",
"                                ",
"                                "
};
